<svg width="36" height="34" viewBox="0 0 36 34" fill="none" xmlns="http://www.w3.org/2000/svg">
  <circle cx="16.0002" cy="11.3334" r="6.66667" fill="#004F7C"/>
  <path fill-rule="evenodd" clip-rule="evenodd" d="M6.13583 30.4136C4.48649 29.6151 3.81243 27.6158 4.81072 26.0791C7.18788 22.42 11.3112 20 15.9998 20C20.6884 20 24.8118 22.42 27.1889 26.0791C28.1872 27.6158 27.5132 29.6151 25.8638 30.4136C22.8817 31.8572 19.5353 32.6667 15.9998 32.6667C12.4644 32.6667 9.11797 31.8572 6.13583 30.4136Z" fill="#004F7C"/>
  <path fill-rule="evenodd" clip-rule="evenodd" d="M28.3783 0.221402C27.0015 1.2904 25.7196 1.9863 24.0056 2.17748C23.4567 2.2387 23.0048 2.67944 23.0251 3.23136C23.3569 12.2594 28.1685 13.4757 28.9265 13.6115C28.9953 13.6239 29.058 13.6239 29.1269 13.6115C29.8849 13.4757 34.6964 12.2594 35.0283 3.23136C35.0486 2.67945 34.5966 2.2387 34.0478 2.17748C32.3338 1.9863 31.0518 1.2904 29.675 0.221402C29.294 -0.0744518 28.7594 -0.0744517 28.3783 0.221402ZM31.9151 5.43349C32.1104 5.23831 32.1105 4.92172 31.9154 4.72638C31.7202 4.53103 31.4036 4.5309 31.2083 4.72608L28.3934 7.53852L27.1627 6.30885C26.9674 6.11367 26.6508 6.11381 26.4556 6.30915C26.2604 6.5045 26.2606 6.82108 26.4559 7.01626L28.04 8.59903C28.2353 8.79409 28.5516 8.79409 28.7468 8.59903L31.9151 5.43349Z" fill="#004F7C"/>
</svg>
