<svg width="103" height="73" viewBox="0 0 103 73" xmlns="http://www.w3.org/2000/svg">
  <path d="M0.0373915 35.9406C0.00833035 36.1279 0.509871 36.2674 0.883844 36.1777C1.37951 36.0652 1.37717 36.189 0.889486 36.3861C0.58187 36.5104 0.432051 36.6148 0.395012 36.7176C0.275224 37.0907 0.951904 37.0805 2.30477 36.6917C3.18612 36.4321 3.70148 36.3467 3.81474 36.4326C3.86304 36.4657 3.70267 36.5656 3.41756 36.6808C2.69729 36.9719 2.50717 37.4086 3.10272 37.4136C3.23355 37.4134 3.82863 37.3309 4.43567 37.2348C5.30109 37.0869 5.59277 37.0743 5.8113 37.1615C6.1459 37.2984 6.49314 37.2721 8.19256 37.0066C8.88823 36.8922 9.59163 36.8186 9.75272 36.85C9.91075 36.8739 10.7691 36.8166 11.6665 36.7261C12.5638 36.6355 13.3485 36.5904 13.4179 36.6326C13.6262 36.7591 14.4093 36.6883 16.3415 36.3726C17.1183 36.243 17.1544 36.2459 17.3601 36.4524C17.5824 36.6785 17.6004 36.68 18.0564 36.4694C18.229 36.3997 18.8285 36.3066 19.4539 36.2557C20.0611 36.2034 20.6804 36.1374 20.8396 36.0994C21.0243 36.0599 21.1643 36.0823 21.2595 36.1667C21.4349 36.3415 22.0827 36.2816 23.5533 35.9681C24.1857 35.8267 24.7294 35.7035 24.7669 35.6883C24.7969 35.6762 24.8694 35.7259 24.9224 35.7922C24.9845 35.8812 25.1139 35.8991 25.3468 35.8489C25.5315 35.8093 25.7916 35.7832 25.936 35.7951C26.2715 35.8262 26.955 35.6817 27.4352 35.4876C27.8028 35.3391 27.8464 35.339 27.9963 35.5154C28.14 35.6767 28.2047 35.6856 28.5395 35.5854C28.9524 35.4625 30.7857 35.4851 30.9609 35.6162C31.0953 35.7111 31.5497 35.7556 31.7297 35.6828C31.8048 35.6525 32.1314 35.7048 32.4552 35.7934C33.2369 36.0216 33.5227 36.0377 33.7821 35.8802C33.9649 35.7712 34.0808 35.7771 34.4862 35.938C34.8283 36.0718 35.0405 36.1001 35.1905 36.0395C35.3331 35.9818 35.5167 36.0042 35.7624 36.1155C36.2086 36.3126 36.6133 36.3421 36.9885 36.1905C37.2285 36.0935 37.3188 36.1009 37.4834 36.2274C37.8504 36.5091 38.1606 36.5856 38.4924 36.4779C38.7716 36.3914 38.8649 36.4063 39.2089 36.6096C39.5107 36.7948 39.6748 36.8337 39.9363 36.7895C40.2232 36.7438 40.3152 36.7768 40.563 37.0014C40.7867 37.2094 40.9525 37.274 41.2458 37.2871C41.5105 37.2942 41.6943 37.3603 41.8153 37.487C42.0407 37.7206 42.5394 37.8964 42.742 37.8146C42.832 37.7782 42.9797 37.8413 43.1535 37.9905C43.4905 38.2844 43.6876 38.3188 43.8987 38.1282C44.0482 37.98 44.2018 38.0145 44.2855 38.2C44.3038 38.2453 44.4504 38.3704 44.6164 38.4788C44.8232 38.6234 44.9979 38.6669 45.1826 38.6273C45.393 38.5862 45.5165 38.6328 45.7719 38.8543C46.0136 39.0638 46.1794 39.1284 46.3839 39.116C46.5372 39.1067 46.7616 39.1652 46.8793 39.2405C47.1752 39.4544 47.4327 39.5083 47.6608 39.4249C47.8034 39.3673 47.9239 39.4064 48.1082 39.5601C48.4013 39.8102 48.8592 39.9499 49.1898 39.904C49.4799 39.8658 49.9038 40.1157 50.1932 40.5078C50.3144 40.6782 50.5608 40.9209 50.7285 41.055C50.8962 41.1891 51.0823 41.4122 51.1372 41.548C51.3049 41.9629 52.0372 42.2199 52.7148 42.104L53.0062 42.0477L52.7795 42.6746L52.5573 43.291L51.7566 43.7286C51.3203 43.9664 50.6757 44.3585 50.3341 44.5931C48.5511 45.7963 46.9586 46.6505 43.8278 48.0824C41.9482 48.9386 41.8178 49.0264 41.9158 49.3553C41.9709 49.5349 42.0481 49.6178 42.2364 49.6734C42.3824 49.7109 42.5016 49.7681 42.5107 49.7907C42.5198 49.8133 42.4153 49.9433 42.2777 50.0779C42.0458 50.3033 42.0355 50.3425 42.1452 50.6141C42.2489 50.8706 42.338 50.9399 42.8158 51.1505L43.357 51.3882L43.5749 51.9057L43.7897 52.4156L44.302 52.6035C44.5883 52.7072 44.989 52.8349 45.2029 52.8889C45.4167 52.9429 45.6835 53.0632 45.7968 53.1491C46.0264 53.3284 46.5321 53.4136 47.1455 53.3763C47.6236 53.3499 47.7185 53.3905 47.8344 53.6772C47.9411 53.9412 48.4689 54.2106 48.9142 54.2325C49.0916 54.2397 49.3986 54.2649 49.5866 54.2767C50.038 54.3137 50.1475 54.2606 50.9064 53.6117C51.2611 53.3016 51.5636 53.0565 51.5847 53.0655C51.6058 53.0745 51.6063 53.1621 51.5873 53.2663C51.5566 53.4279 51.581 53.4883 51.7275 53.6133C51.8544 53.7113 51.9486 53.9014 52.0514 54.2635C52.1787 54.7299 52.2106 54.7872 52.3806 54.7975C52.6003 54.8228 53.8256 54.4856 54.5459 54.1945L55.0711 53.9822L55.2662 54.4651C55.4918 55.0233 55.6081 55.1167 55.7056 54.7965C55.7928 54.5155 55.8453 54.4943 55.9398 54.7282C55.9825 54.8338 55.9729 55.0044 55.9178 55.1056C55.784 55.3791 55.8309 55.4304 56.1235 55.3121C56.3711 55.2121 56.3769 55.1834 56.5091 54.0418L56.6366 52.8669L57.2365 52.5806C57.565 52.4215 57.8396 52.3018 57.8396 52.3018C57.8426 52.3093 57.7864 52.4725 57.7137 52.6598C57.5714 53.042 57.5332 53.4875 57.6338 53.7364C57.7131 53.9326 57.8151 53.8826 58.0629 53.5455C58.1689 53.3974 58.2587 53.3172 58.2514 53.364C58.2516 53.4078 58.2409 53.6403 58.2287 53.891C58.221 54.131 58.1626 54.4618 58.1033 54.6174C57.9861 54.9105 58.1139 55.4644 58.2958 55.461C58.347 55.4579 58.4604 55.3068 58.5437 55.1239C58.6224 54.9517 58.7523 54.7763 58.8273 54.746C58.9924 54.6793 59.3112 53.8484 59.6265 52.6416C59.765 52.1204 59.9544 51.5524 60.0468 51.3923C60.1467 51.229 60.2027 51.0221 60.1811 50.9255C60.1396 50.758 60.1816 50.7322 61.0561 50.3262C61.8812 49.9489 62.0416 49.849 62.6012 49.3332C62.9454 49.0186 63.4274 48.6132 63.6807 48.4406C63.9383 48.2575 64.468 47.7539 64.8731 47.3093C65.2677 46.8603 65.7045 46.4292 65.8273 46.3445C65.9577 46.2567 66.2243 46.0524 66.4189 45.886C66.6135 45.7196 66.8575 45.5245 66.9609 45.4564C67.0763 45.3746 67.1328 45.2553 67.126 45.1088C67.1159 44.9111 67.1921 44.8188 67.6682 44.4421C68.6087 43.7023 68.5735 43.5936 67.3338 43.2258C66.2072 42.9 64.3358 42.2433 64.3053 42.1679C64.2931 42.1377 64.5496 41.7357 64.887 41.2746C66.6453 38.844 67.5092 37.0293 67.3462 36.0859C67.1442 34.895 66.8337 33.9323 66.4053 33.1313L65.9755 32.3484L66.1422 32.0265C66.3194 31.7092 66.4826 31.573 66.5374 31.7088C66.5923 31.8446 66.9131 31.6448 67.2014 31.3001C67.4047 31.0687 67.517 30.9795 67.5909 31.0111C67.7913 31.0968 67.9951 30.953 68.4253 30.4193C68.751 30.0157 68.9336 29.8629 69.2112 29.7507C69.4063 29.6719 69.6865 29.4797 69.821 29.3375C69.9915 29.1546 70.1819 29.0425 70.4161 28.9742C70.8395 28.8557 71.5136 28.3639 71.7178 28.0269C71.8519 27.7972 71.8819 27.7851 71.9877 27.874C72.1417 27.996 72.1987 27.9642 72.5187 27.633C72.6578 27.4803 72.9227 27.2504 73.1114 27.1127C73.2927 26.978 73.4917 26.801 73.5499 26.7073C73.6111 26.6212 73.7728 26.5031 73.9154 26.4455C74.0579 26.3879 74.2167 26.2623 74.2643 26.1641C74.3311 26.0055 74.3911 25.9812 74.7172 25.946C74.9336 25.9199 75.2504 25.8183 75.5008 25.682C75.7362 25.5517 76.3932 25.2336 76.9662 24.9669C77.7507 24.5972 78.0325 24.4307 78.0935 24.3007C78.1619 24.1678 78.4393 24.0118 79.2838 23.6178C80.3504 23.1254 80.5497 22.9922 80.6789 22.6855C80.7234 22.5797 81.0444 22.4237 81.9747 22.0477C83.1377 21.5778 83.2097 21.5399 83.3032 21.3178C83.3878 21.1169 83.4987 21.0457 84.4363 20.6229C85.0094 20.3563 85.5132 20.0912 85.558 20.0292C85.5997 19.9597 86.0977 19.7234 86.6499 19.4915C87.7573 19.0352 88.0419 18.8324 87.9382 18.5759C87.8925 18.4627 87.9178 18.4174 88.0051 18.4173C88.2998 18.4122 89.4784 18.0676 89.7077 17.9222C90.0254 17.7149 90.1009 17.4913 89.9016 17.3437C89.8186 17.2895 89.7476 17.2216 89.7384 17.199C89.711 17.1311 90.1883 16.9733 91.028 16.7832C91.8451 16.6022 91.872 16.5825 91.9147 16.4073C91.9442 16.3076 91.9252 16.131 91.8795 16.0178C91.8002 15.8217 91.8047 15.8111 92.3327 15.5626C92.9088 15.3035 93.2841 14.9148 93.0731 14.8246C92.7566 14.6892 85.8159 16.0022 82.3151 16.864C80.2921 17.3656 78.8825 17.8299 77.5008 18.4497C74.2558 19.9015 71.3373 21.9234 68.393 24.7456C67.2306 25.8647 65.1498 28.1888 64.266 29.3709L63.6015 30.2537L63.0388 30.2003C62.2775 30.1306 61.5211 30.4187 60.7052 31.0995C60.1692 31.5442 59.1259 32.1589 58.4056 32.45C58.158 32.5501 57.8469 32.5793 57.3189 32.5469C55.7739 32.4604 54.5251 32.0699 51.6668 30.7853C50.5256 30.2723 49.3047 29.7565 48.9401 29.6318C48.5785 29.5146 47.0294 28.9208 45.4877 28.3239C40.2809 26.3034 40.1062 26.2599 37.8178 26.3422C35.7699 26.415 32.1136 26.8921 29.7673 27.3927C25.0492 28.3955 13.3097 31.6565 4.16818 34.4995C0.679111 35.5847 0.0591874 35.8001 0.0373915 35.9406Z"/>
</svg>
