<svg width="184" height="100" viewBox="0 0 184 100" xmlns="http://www.w3.org/2000/svg">
  <path d="M129.999 0.0973727C131.049 0.263836 132.004 0.620544 132.498 1.02481C132.736 1.22695 133.166 1.50042 133.453 1.63122C133.914 1.84524 134.614 2.68946 134.614 3.03427C134.614 3.09373 134.948 3.31964 135.362 3.54556C136.365 4.08062 137.065 5.01995 136.938 5.63824C136.779 6.45867 136.731 6.55379 136.365 7.08886C135.951 7.68337 135.728 7.84983 134.98 8.09953C134.71 8.19465 134.439 8.32544 134.376 8.39678C134.232 8.56325 132.068 9.01508 131.654 8.95563C131.447 8.93185 131.256 8.94374 131.24 8.9913C131.097 9.2291 127.883 11.1197 127.485 11.1791C127.023 11.2623 126.928 11.4883 127.214 11.845C127.294 11.952 127.278 12.0233 127.151 12.059C126.832 12.1422 127.278 12.4395 127.723 12.4395C127.946 12.4395 128.36 12.6297 128.774 12.927C129.14 13.1886 129.601 13.462 129.792 13.5096C130.254 13.6523 131.75 14.4608 131.75 14.5797C131.75 14.6273 132.116 14.7819 132.545 14.9245C132.991 15.0672 133.643 15.4002 134.01 15.6498C134.391 15.9352 134.805 16.1255 135.044 16.1255C135.267 16.1255 135.681 16.3157 136.094 16.6011C136.444 16.8627 136.97 17.1242 137.24 17.1837C137.702 17.2788 138.593 17.6593 139.389 18.1349C139.611 18.2538 140.089 18.4203 140.455 18.4916C140.805 18.563 141.362 18.8127 141.68 19.0386C142.014 19.2645 142.317 19.4547 142.38 19.4666C143.447 19.538 143.622 19.5855 144.035 19.9185C144.29 20.1206 144.545 20.2871 144.608 20.2989C144.672 20.3108 144.943 20.3227 145.229 20.3465C145.5 20.3584 145.945 20.4892 146.2 20.6319C146.47 20.7627 146.757 20.8816 146.836 20.8816C146.932 20.8816 147.107 20.9529 147.218 21.048C147.425 21.1907 149.558 21.6663 149.637 21.5712C150.29 20.7508 152.279 19.205 153.154 18.8127C153.425 18.6938 153.791 18.4084 153.982 18.1706C154.73 17.1956 155.557 16.6486 156.926 16.2087C157.658 15.9828 158.581 15.7569 158.995 15.7212C160.475 15.5547 163.499 16.4941 164.581 17.4334C165.201 17.9684 167.493 21.0361 167.652 21.5474C167.716 21.7377 167.923 22.13 168.13 22.4273C168.336 22.7246 168.511 23.0932 168.511 23.2477C168.511 23.4023 168.83 23.9968 169.228 24.5794C169.625 25.1621 169.976 25.7328 170.007 25.8398C170.023 25.9587 170.151 26.2084 170.246 26.4105C170.358 26.6008 170.469 26.8148 170.501 26.8862C170.851 27.8968 171.217 28.1108 174.4 29.1929C174.798 29.3237 175.386 29.5615 175.705 29.7041C178.346 30.9288 178.537 31.0002 178.84 30.8694C179.349 30.6791 179.795 30.7267 180.224 31.0477C180.495 31.2499 180.797 31.345 181.163 31.345C181.736 31.345 182.039 31.5828 181.959 31.9633C181.927 32.0703 182.086 32.2487 182.293 32.3557C182.5 32.4508 182.675 32.641 182.675 32.7718C182.675 32.9026 182.771 33.0096 182.882 33.0096C183.248 33.0096 183.582 33.4139 183.534 33.7825C183.503 33.9727 183.455 34.484 183.407 34.9121C183.375 35.3401 183.216 35.9465 183.057 36.2795C182.309 37.9203 182.182 38.5386 182.5 39.2639C182.659 39.6563 182.755 40.2151 182.739 40.7621C182.707 41.5468 182.659 41.6539 182.245 41.9392C181.673 42.3078 181.609 42.4267 181.402 43.4493C180.988 45.4469 179.858 48.4551 178.808 50.3694C178.362 51.1899 176.93 53.1993 176.182 54.0554C175.45 54.8877 173.365 56.5167 172.745 56.7426C171.663 57.1231 170.899 57.5274 170.899 57.7176C170.883 58.0149 170.787 59.0255 170.596 60.714C170.373 62.7234 170.389 63.1752 170.739 64.6972C170.899 65.4106 171.121 66.5402 171.217 67.1942C171.312 67.8481 171.456 68.4664 171.519 68.5615C171.647 68.728 171.758 69.8338 171.742 70.7018C171.742 71.2368 166.411 79.8335 165.408 80.9274C164.66 81.736 164.262 82.7466 164.422 83.4719C164.469 83.6978 163.992 85.5527 163.244 88.0616C162.544 90.3802 161.923 92.4729 161.859 92.6988C161.748 93.0674 161.668 93.1149 161.191 93.1506C159.806 93.2219 159.6 93.2814 159.615 93.6262C159.631 94.1018 159.806 94.3634 160.22 94.518C160.554 94.6369 162.13 96.2064 162.114 96.3848C162.082 96.6226 162.225 96.7534 162.798 97.0268C163.148 97.2052 163.865 97.6451 164.39 98.0018C164.899 98.3585 165.392 98.6439 165.472 98.6439C165.695 98.6439 165.806 99.1314 165.631 99.3692C165.504 99.5595 164.899 99.7378 163.817 99.9043C163.642 99.94 162.496 99.9637 161.271 99.9637C159.329 99.9756 158.899 99.94 158.008 99.714C156.878 99.4168 154.3 98.1802 154.125 97.871C154.077 97.764 154.03 97.3835 154.03 97.0387C154.03 96.4442 153.998 96.3967 153.616 96.361C153.313 96.3372 153.091 96.1588 152.709 95.6119C152.422 95.2314 152.152 94.8509 152.072 94.7796C151.658 94.3634 151.165 93.7451 151.165 93.6381C151.165 93.4122 150.337 93.2933 148.81 93.2933C147.966 93.2933 146.47 93.2101 145.515 93.1149C144.545 93.0198 143.494 92.9366 143.176 92.9366C142.842 92.9366 142.301 92.8534 141.983 92.7582C141.648 92.6631 140.884 92.4966 140.296 92.4134C139.691 92.3183 139.166 92.2113 139.118 92.1756C139.07 92.1518 138.863 90.7963 138.656 89.1674C138.179 85.6122 138.275 84.221 139.229 80.7609C139.404 80.1189 139.579 78.8823 139.627 77.8716C139.723 76.1832 139.946 74.8158 140.184 74.5661C140.327 74.4234 140.471 73.8408 140.598 73.0204C140.805 71.6411 141.378 69.8457 141.776 69.2987C141.855 69.1917 142.221 68.4783 142.587 67.7292C142.937 66.9801 143.287 66.3024 143.351 66.2429C143.638 65.9695 144.004 64.9112 144.004 64.3405C144.004 64.0076 144.051 63.6865 144.131 63.639C144.195 63.5914 144.322 63.2228 144.417 62.8185C144.592 62.1408 144.577 62.0576 144.258 61.7484C143.956 61.4393 143.924 61.2252 143.876 59.5487C143.844 58.5262 143.908 57.2539 144.004 56.7307C144.083 56.2075 144.322 54.745 144.497 53.4728L144.831 51.1542L142.412 49.3706C140.614 48.027 139.882 47.3969 139.516 46.8618C138.895 45.9462 138.386 44.1627 138.593 43.6158C138.704 43.2947 138.672 43.1164 138.418 42.7834C137.972 42.1533 138.036 41.642 138.688 40.6313C139.007 40.1319 139.325 39.6206 139.404 39.4898C139.532 39.252 139.977 38.0392 140.439 36.6362C140.757 35.7087 141.601 33.7706 141.871 33.3782C141.998 33.2118 142.094 33.0334 142.094 32.974C142.094 32.9264 142.317 32.6648 142.571 32.3913C142.842 32.1179 143.017 31.8206 142.985 31.7374C142.937 31.666 142.333 31.0121 141.632 30.2987L140.375 29.0026L144.497 26.0657C146.757 24.4486 148.603 23.0932 148.587 23.0456C148.571 22.998 148.651 22.8316 148.762 22.6889C148.873 22.5343 148.937 22.3916 148.905 22.3797C148.635 22.2489 146.645 21.595 146.152 21.4761C145.802 21.3928 145.213 21.1669 144.847 20.9648C144.481 20.7746 144.004 20.5962 143.781 20.5843C143.272 20.5367 142.412 20.1563 142.412 19.9779C142.412 19.8471 141.839 19.645 141.553 19.6806C141.298 19.7163 140.423 19.4191 140.28 19.2407C140.216 19.1456 139.707 18.9078 139.166 18.7175C137.606 18.1587 137.272 18.016 136.715 17.6474C136.253 17.3502 135.919 17.255 135.537 17.3026C135.474 17.3026 135.092 17.0767 134.694 16.7794C134.264 16.4584 133.834 16.2444 133.612 16.2444C133.421 16.2444 133.007 16.0779 132.705 15.8758C132.402 15.6617 131.591 15.2456 130.874 14.9245C130.174 14.6154 129.347 14.1636 129.044 13.9376C128.742 13.6998 128.344 13.5096 128.169 13.5096C127.739 13.5096 127.135 13.1886 126.991 12.8794C126.88 12.6535 126.848 12.6535 126.562 13.0102C126.403 13.2242 126.196 13.3907 126.1 13.3907C126.021 13.3907 125.702 13.5572 125.4 13.7593L124.875 14.1279L125.511 14.6154C126.148 15.1148 126.657 15.745 126.657 16.0422C126.657 16.1255 126.753 16.2681 126.848 16.3395C126.96 16.4227 127.055 16.5297 127.071 16.5773C127.071 16.6248 127.135 16.7556 127.214 16.8864C127.31 17.0529 127.246 17.1599 126.96 17.3264C126.753 17.4453 126.498 17.5523 126.403 17.5523C126.307 17.5523 126.037 17.7425 125.782 17.9684C125.48 18.2657 125.257 18.3727 125.066 18.3252C124.907 18.2895 124.732 18.3133 124.668 18.3846C124.588 18.4797 124.493 18.4797 124.334 18.3727C124.222 18.3014 123.665 18.23 123.108 18.23C121.915 18.2063 121.246 18.456 121.246 18.9197C121.246 19.1337 121.135 19.2288 120.848 19.2883C120.53 19.3477 120.451 19.4547 120.371 19.9066C120.307 20.2157 120.212 20.727 120.132 21.0599C120.005 21.6782 119.973 21.9279 119.989 22.7602C119.989 23.0337 119.878 23.3785 119.734 23.5212C119.607 23.6758 119.496 23.9374 119.496 24.1157C119.496 24.2941 119.4 24.4843 119.289 24.5319C119.114 24.6151 118.843 24.9956 118 26.3392C117.682 26.8505 116.568 27.5401 115.151 28.0871C113.719 28.6459 112.653 29.2999 112.653 29.6447C112.653 29.8587 111.634 31.3093 110.759 32.2962C110.457 32.6529 110.075 33.1404 109.931 33.3663C109.709 33.7231 108.642 34.8645 107.751 35.6968C107.178 36.2319 104.711 38.0987 103.375 39.0142L101.958 39.9654L102.038 40.4767C102.086 40.7621 102.213 41.0475 102.356 41.1307C102.483 41.2139 102.627 41.4874 102.674 41.749C102.754 42.1295 102.69 42.3197 102.388 42.7002C102.165 42.9618 101.99 43.259 101.99 43.3661C101.99 43.4731 101.895 43.6276 101.767 43.7109C101.64 43.7822 101.56 43.913 101.608 43.9962C101.672 44.1389 101.258 44.6026 100.606 45.1139C100.319 45.3398 100.351 45.4706 100.717 45.5539C101.051 45.6371 101.29 46.0889 101.131 46.3862C101.083 46.5051 101.306 46.7072 101.783 46.9807C102.643 47.4682 103.088 47.9795 103.2 48.5383C103.231 48.7524 103.279 48.9783 103.295 49.0258C103.343 49.1804 103.072 49.7036 102.834 49.9057C102.706 50.0246 102.468 50.0841 102.293 50.0484C102.117 50.0127 101.847 50.0722 101.688 50.1792C101.529 50.2862 101.29 50.3456 101.163 50.31C101.035 50.2743 100.844 50.3219 100.733 50.417C100.574 50.5597 100.462 50.5716 100.24 50.4645C100.017 50.3575 99.794 50.3575 99.3166 50.4764C98.8869 50.5835 98.3458 50.6072 97.7092 50.5597C97.0568 50.5002 96.7385 50.5121 96.7385 50.6072C96.7385 50.7024 96.643 50.7024 96.4202 50.6072C96.2451 50.5359 96.1019 50.5121 96.1019 50.5597C96.1019 50.5953 96.0064 50.5716 95.895 50.5002C95.7677 50.4289 95.6404 50.4051 95.5767 50.4408C95.4017 50.5716 94.8765 50.3575 94.6696 50.0722C94.5582 49.9176 94.3991 49.8106 94.3354 49.8463C94.1126 49.9414 93.5079 49.4539 93.6034 49.2636C93.6511 49.1685 93.6193 49.0377 93.5238 48.9664C93.4283 48.895 93.3965 48.6929 93.4761 48.5027C93.5238 48.3243 93.5875 48.1459 93.5875 48.1103C93.5875 47.7655 95.4176 46.2316 96.6112 45.5776C97.1841 45.2566 97.2 45.2328 97.1363 44.6383C97.1045 44.3054 96.9931 43.9844 96.8817 43.9368C96.6589 43.8417 95.6881 43.9249 95.2744 44.0795C94.9083 44.2222 93.5397 43.9487 93.4283 43.7109C93.1578 43.1758 92.9827 43.1877 90.4524 43.9249L89.6726 44.1627L89.6089 44.9118C89.5771 45.328 89.4339 45.863 89.2747 46.0889C89.036 46.4456 88.8769 46.517 88.288 46.5883C86.8398 46.7548 85.7577 46.3862 85.7577 45.7203C85.7577 45.2091 85.0893 45.1258 83.7047 45.4469C82.9886 45.6252 82.8454 45.7203 82.3998 46.3148C81.429 47.6228 79.8217 49.2993 79.1374 49.7155C78.0075 50.417 78.0234 50.3932 77.912 51.5822C77.7687 53.128 77.7847 53.0685 76.1773 56.3383C76.0978 56.5167 76.0659 56.9804 76.1137 57.349C76.1614 57.7295 76.2569 58.538 76.3046 59.1563C76.416 60.2502 76.416 60.2621 76.0818 60.1789C75.875 60.1313 75.7317 60.1551 75.7317 60.2265C75.7317 60.2978 75.6203 60.3216 75.4771 60.274C75.2702 60.2146 75.2384 60.2502 75.318 60.4524C75.493 60.8448 75.2702 60.9993 74.9519 60.7021C74.7132 60.4762 74.6496 60.4643 74.4427 60.6307C74.2358 60.7853 73.3764 63.1871 73.1059 64.3999C72.8353 65.5533 72.6762 66.124 72.5489 66.2429C72.4852 66.3024 72.3897 66.5164 72.3261 66.7185C72.2783 66.9088 72.1988 67.1823 72.151 67.3131C72.0237 67.7292 71.7532 68.7161 71.5781 69.4533C71.3872 70.25 71.3394 72.9134 71.4986 73.5554C71.5781 73.8408 71.5304 74.1619 71.3553 74.5067C71.2121 74.8039 71.0689 75.2201 71.037 75.4222C70.9256 76.1832 70.7506 76.5994 70.0663 77.6338C69.4774 78.5375 69.3979 78.7753 69.4297 79.3103C69.4615 79.667 69.557 80.0356 69.6366 80.1545C69.748 80.2972 69.7162 80.6064 69.5252 81.1533C69.191 82.0927 69.0955 86.1354 69.382 86.932C69.4774 87.1936 69.5729 87.8832 69.5888 88.4777C69.6207 89.0604 69.6843 89.6787 69.7321 89.8451C70.3209 91.4979 71.4986 93.6024 72.1192 94.1137C72.8672 94.7082 73.5356 94.9223 74.8087 94.9698C76.1932 95.0293 76.6388 95.2314 77.1958 96.0875C77.355 96.3491 77.6255 96.7415 77.8006 96.9555C78.2462 97.5738 77.9279 97.9662 76.8616 98.097C76.7502 98.1088 76.5274 98.2396 76.3842 98.3823C75.9864 98.7747 74.745 98.9768 71.9123 99.1433C68.6817 99.3217 67.5518 99.3217 66.0559 99.1433C64.6873 98.9768 64.2894 98.7271 64.2735 98.0256C64.2735 97.443 64.7032 96.5274 65.1647 96.1113C65.6262 95.707 65.6262 95.6238 65.2443 95.2195C64.7668 94.6963 64.3531 93.5311 64.3849 92.7582C64.4008 92.3659 64.4486 90.7012 64.4963 89.0722C64.544 87.4314 64.5918 85.8857 64.6077 85.6241C64.6395 84.8631 64.3053 80.5588 64.2099 80.4875C64.1621 80.4518 63.8916 80.5707 63.6051 80.7609C63.1118 81.082 61.9341 81.5338 60.6292 81.8905C60.3268 81.9738 59.6902 82.2948 59.2128 82.6158C58.7354 82.925 58.242 83.1866 58.1306 83.1866C58.0033 83.1866 57.685 83.4838 57.4145 83.8524C57.128 84.221 56.7461 84.5777 56.5392 84.6372C56.3323 84.7085 56.014 84.9463 55.839 85.1722C55.6162 85.4576 55.2342 85.6716 54.5022 85.9094C53.802 86.1472 53.3086 86.4207 52.8789 86.8131C52.5288 87.1222 51.9877 87.5741 51.6695 87.8357C51.3353 88.0854 51.0329 88.4421 50.9692 88.6204C50.7624 89.3457 50.1894 89.9759 49.4256 90.3445C48.3275 90.8677 47.9455 91.3671 47.7227 92.5799C47.6273 93.1387 47.5477 93.8997 47.5636 94.2683C47.5795 95.0768 47.309 95.5287 46.4178 96.1707C45.6221 96.7415 45.1765 96.8247 44.142 96.575C43.3304 96.3848 43.2668 96.3967 42.5347 96.6226C41.4048 96.9912 41.007 96.8723 39.6861 95.814C38.1901 94.6131 37.8559 94.2207 37.7445 93.5549C37.6331 92.8296 38.2061 91.4384 39.2564 89.8332C40.1794 88.454 40.7523 88.0972 42.2801 87.9902C43.1872 87.9189 43.3623 87.8594 43.9511 87.4076C44.715 86.8488 46.1632 86.0402 46.4337 86.0402C46.5292 86.0402 46.6087 85.9927 46.6087 85.9332C46.6087 85.8738 46.752 85.7786 46.927 85.743C48.041 85.4814 53.802 81.4981 55.3934 79.893C56.3164 78.9536 56.7143 77.9905 56.8734 76.3497C57.0166 74.9228 57.0644 74.6494 57.3031 74.2926C57.4781 74.0429 57.4941 73.8884 57.3827 73.8051C57.2872 73.7338 57.1917 73.1868 57.1758 72.5804C57.1439 71.974 57.0166 71.0466 56.8734 70.5234C56.7461 70.0003 56.4915 68.8469 56.3005 67.967C56.1254 67.0871 55.9186 66.2548 55.839 66.124C55.7594 65.9932 55.6162 65.5652 55.5207 65.1728C55.4093 64.7804 55.2342 64.2929 55.1228 64.1027C55.0114 63.9006 54.7886 63.4487 54.6454 63.092C54.5022 62.7353 54.3112 62.331 54.2316 62.2002C54.1521 62.0695 53.9452 61.5344 53.7861 61.0112C53.1813 59.2039 53.0063 58.7996 52.5447 58.4191C52.2901 58.2051 51.9877 57.8365 51.8763 57.6106C51.2398 56.3383 50.9215 56.1124 50.9056 56.9329C50.9056 57.1112 50.8419 57.2777 50.7624 57.3133C50.6828 57.3609 50.635 57.4798 50.6669 57.5987C50.6828 57.7057 50.635 57.8603 50.5555 57.9316C50.3008 58.1813 50.2213 59.2039 50.4441 59.5844C50.5555 59.7746 50.651 59.9649 50.651 60.0005C50.6669 60.0362 50.7146 60.1076 50.7624 60.1789C50.826 60.2383 50.9533 60.5951 51.0806 60.9518C51.192 61.3085 51.3512 61.6771 51.4308 61.7603C51.5262 61.8435 51.5422 61.9387 51.4944 61.9862C51.4308 62.0219 51.4467 62.117 51.5262 62.1884C51.7172 62.3786 52.0832 63.4487 51.9718 63.5201C51.7809 63.6627 51.574 63.4368 51.383 62.8899C51.1602 62.2597 50.8101 61.8554 51.0011 62.438C51.0647 62.6283 51.208 63.0207 51.3353 63.306C51.4626 63.5795 51.5422 63.8768 51.5103 63.96C51.4944 64.0313 51.5262 64.2216 51.6058 64.3643C51.6695 64.5188 51.6376 64.7329 51.5422 64.8756C51.3512 65.149 51.1284 65.042 50.7942 64.5188C50.635 64.2454 50.6191 64.2691 50.6669 64.7567C50.7146 65.3987 50.6032 65.6841 50.4122 65.4463C50.3168 65.3393 50.269 65.3987 50.269 65.6246C50.269 66.1478 50.0303 65.8981 49.8075 65.149C49.6961 64.7685 49.537 64.3643 49.4574 64.2573C49.3778 64.1384 49.3142 63.96 49.3142 63.8649C49.3142 63.7698 49.2505 63.6865 49.1709 63.6865C49.0755 63.6865 49.0755 63.8411 49.155 64.0789C49.2346 64.281 49.3301 64.828 49.3937 65.2798C49.4892 65.9338 49.4574 66.0765 49.2823 66.0408C49.1709 66.0051 49.0118 65.6603 48.9163 65.1966C48.7572 64.4356 48.5185 63.9957 48.5185 64.4951C48.5185 64.8399 48.2002 64.9588 48.0888 64.6496C47.9933 64.3643 47.7227 64.3167 47.7227 64.5783C47.7227 64.7923 47.4681 64.8161 47.3726 64.6021C47.3249 64.5307 47.2771 63.9838 47.2612 63.3893C47.2453 62.8066 47.1498 62.2359 47.0703 62.1289C46.9907 62.01 46.927 61.7009 46.927 61.4393C46.927 60.9399 46.5928 60.7496 46.386 61.142C46.1632 61.5819 45.9722 61.0944 45.9722 60.0481C45.9722 58.8947 45.9881 58.9304 45.3038 58.8829C45.0492 58.871 45.0969 60.9755 45.3515 61.3323C45.4948 61.5344 45.4788 61.6176 45.3038 61.7127C45.1765 61.7841 45.0969 61.9268 45.1446 62.0219C45.2242 62.1765 45.1924 62.1765 44.9378 62.0219C44.6672 61.8554 44.6513 61.8673 44.7309 62.1051C44.7945 62.2597 44.7627 62.3786 44.699 62.3786C44.6195 62.3786 44.5399 62.4975 44.5081 62.6402C44.4762 62.7829 44.3808 62.9137 44.2853 62.9374C44.0466 62.9969 43.4737 62.6045 43.3782 62.3191C43.3304 62.1527 43.2986 62.1884 43.2827 62.438C43.2509 62.9137 43.0599 63.1158 42.7416 63.0207C42.5188 62.9612 42.4711 63.0207 42.4711 63.3179C42.4711 63.5914 42.3756 63.7222 42.105 63.8054C41.9141 63.8649 41.8186 63.9124 41.8981 63.9124C41.9777 63.9243 41.9459 63.9957 41.8504 64.0908C41.7072 64.2216 41.5799 64.2216 41.2775 64.1146C40.8319 63.96 40.8001 63.8649 41.1184 63.4487C41.2457 63.2823 41.3412 62.985 41.3571 62.7829C41.3571 62.5926 41.4207 62.3786 41.5162 62.3073C41.5958 62.2478 41.7867 61.4749 41.93 60.5951C42.0732 59.7152 42.2483 58.9304 42.3119 58.871C42.3915 58.7996 42.5347 58.1694 42.6302 57.4679C42.7257 56.7664 42.8371 56.1005 42.8848 55.9816C42.9644 55.8152 42.9326 55.8271 42.7098 56.0173C42.5665 56.1481 42.4233 56.374 42.3597 56.5167C42.2801 56.7783 41.8345 56.9091 41.8345 56.6713C41.8345 56.4929 42.2164 55.9103 42.3915 55.8152C42.4711 55.7676 42.487 55.6963 42.4074 55.6368C42.296 55.5536 41.9618 55.8627 41.8981 56.1005C41.8345 56.3502 41.8027 56.3502 41.6753 56.1362C41.5639 55.946 41.5321 55.9816 41.5321 56.3383C41.5162 56.8021 41.2616 57.0518 41.1024 56.7426C41.0547 56.6356 40.9115 56.5524 40.7842 56.5524C40.625 56.5524 40.5614 56.3859 40.5614 55.946C40.5614 55.3514 40.5614 55.3514 40.2112 55.5417C39.877 55.7082 39.8293 55.7082 39.5906 55.4704C39.336 55.2207 39.336 55.2207 39.2246 55.7082C39.145 56.0886 39.0495 56.1957 38.8108 56.1957C38.5562 56.1957 38.4925 56.1124 38.4925 55.8152C38.4925 55.613 38.4448 55.4822 38.3652 55.5298C38.3015 55.5774 38.2538 56.0649 38.2538 56.6118C38.2538 57.3015 38.1742 57.6582 38.0151 57.8008C37.8878 57.9197 37.7923 58.0505 37.8082 58.0862C37.84 58.1219 37.7445 58.3954 37.6013 58.6926C37.4581 58.9899 37.2989 59.3109 37.2671 59.406C37.1239 59.7033 37.0761 59.8935 36.8215 61.1896C36.6942 61.8673 36.5191 62.4737 36.4396 62.5332C36.3441 62.6045 36.36 62.7353 36.4714 62.8661C36.6942 63.1277 36.6465 63.1634 35.9781 63.2704C35.5325 63.3417 35.4688 63.3179 35.4688 63.1158C35.4688 62.985 35.3574 62.8542 35.246 62.8185C35.055 62.7591 34.9914 62.878 34.9596 63.3655C34.8959 64.1265 34.6254 64.174 34.498 63.4487C34.4185 62.9612 34.4026 62.9374 34.2912 63.2347C34.2275 63.4131 34.0684 63.6152 33.941 63.6984C33.7501 63.8173 33.7183 63.7222 33.7023 63.1396C33.6864 62.7472 33.6864 62.3073 33.7023 62.1408C33.7342 61.903 33.7023 61.8792 33.575 62.0219C33.4795 62.117 33.4 62.4856 33.4 62.8423C33.4 63.3417 33.3522 63.4606 33.1772 63.4131C33.018 63.3655 32.9225 63.4368 32.8907 63.5914C32.8271 63.9362 32.4451 64.0195 32.4451 63.6984C32.4451 63.5557 32.5406 63.2585 32.6679 63.0445C32.7952 62.8066 32.8271 62.5807 32.7475 62.4856C32.5247 62.2121 32.5724 60.3573 32.7952 60.3573C32.9066 60.3573 33.209 60.0719 33.4636 59.7271C33.7183 59.3941 34.0206 59.0255 34.1479 58.9185C34.2593 58.8115 34.4662 58.4191 34.6094 58.0268C34.7368 57.6463 35.0232 57.1112 35.2619 56.8615C35.7234 56.3383 35.9462 55.8746 36.0576 55.2088C36.1054 54.8996 36.0736 54.7688 35.9622 54.8283C35.8667 54.8639 35.7871 54.9472 35.7871 54.9947C35.7871 55.0542 35.5325 55.3039 35.2301 55.5536L34.6731 56.0054V55.613C34.6731 55.399 34.6094 55.2563 34.5299 55.3039C34.4344 55.3396 34.3071 55.2682 34.2116 55.1612C34.0684 54.9591 34.0365 54.9591 33.8137 55.185C33.5909 55.4109 33.575 55.4109 33.4636 55.2088C33.4 55.0661 33.4795 54.8996 33.7023 54.7213C33.941 54.5429 34.0365 54.317 34.0206 53.9841C34.0047 53.7344 33.9729 53.6036 33.941 53.6987C33.8933 53.7938 33.6864 53.9365 33.4636 54.0197C33.1453 54.1268 33.0499 54.1268 32.9862 53.996C32.9066 53.8652 32.8271 53.8771 32.5565 54.0554C32.2064 54.3051 31.8881 54.3646 31.7449 54.1862C31.6812 54.1268 31.4584 54.103 31.2038 54.1268C29.7556 54.2813 29.4055 54.2575 28.9758 53.9484C28.7371 53.7819 28.5461 53.5203 28.5302 53.3539C28.5302 53.1755 28.5143 52.8307 28.4984 52.5691L28.4666 52.0935L27.6231 53.2231C26.8274 54.317 26.7797 54.3527 26.1113 54.4478C25.0768 54.6024 24.9654 54.531 24.9495 53.7344C24.9495 53.1399 24.9177 53.0804 24.7586 53.2825C24.6472 53.4133 24.297 53.7225 23.9788 53.9722C23.6446 54.2338 23.4059 54.4835 23.4536 54.531C23.4854 54.5786 23.4536 54.7926 23.3581 55.0185C23.1194 55.6368 22.8966 57.1826 22.8648 58.5737C22.8489 59.9411 22.7693 60.1551 21.9895 60.9637C21.703 61.2728 21.4643 61.6057 21.4643 61.7009C21.4643 61.796 21.2893 62.1646 21.0665 62.5213C20.8437 62.8661 20.6686 63.3417 20.6686 63.5795C20.6686 63.8173 20.6209 64.0432 20.5572 64.0908C20.414 64.1859 20.3662 64.3643 20.1753 65.5295C19.9684 66.8018 19.7456 68.5259 19.666 69.6911C19.6183 70.2143 19.5069 71.1298 19.4114 71.7362C19.1886 73.0917 19.3955 75.232 19.7933 75.6957C19.8888 75.7908 19.9684 77.1582 19.9843 78.8466C20.0161 81.7241 20.0957 82.8655 20.3185 83.1152C20.3662 83.1866 20.4299 83.2936 20.4617 83.3649C20.6209 83.9 21.0506 84.9463 21.162 85.1128C21.2893 85.303 21.894 86.8725 22.0054 87.3482C22.0372 87.4433 22.1327 87.6811 22.2441 87.8594C22.3396 88.0497 22.4192 88.228 22.4192 88.2518C22.4192 88.3469 23.1831 89.5954 23.6446 90.2613C24.1538 90.9985 25.0768 92.0686 25.2837 92.1637C25.4747 92.2469 25.9362 93.0079 26.0158 93.3527C26.1908 94.1256 26.4614 94.7082 26.7956 95.0768C27.464 95.8259 28.6257 96.6345 29.3578 96.8723C29.7874 97.0031 30.058 97.1576 30.0102 97.2528C29.9784 97.3241 30.0421 97.5619 30.1694 97.7759C30.7264 98.7985 30.249 99.2384 28.3074 99.4406C28.0051 99.4762 27.6709 99.5476 27.5913 99.5951C27.1457 99.8448 25.3951 100.011 23.4536 99.9994C21.5916 99.9875 20.4299 99.7021 19.9843 99.1314C19.6183 98.6558 19.6501 98.3942 20.1753 97.4787C20.7959 96.4204 20.8914 95.9329 20.6686 95.172C20.5572 94.8271 20.4458 94.3277 20.3981 94.0662C19.9047 90.8796 17.3903 85.0414 15.0032 81.5219C14.6212 80.9631 14.2074 80.321 14.0801 80.0951C13.9528 79.8692 13.7459 79.5481 13.6186 79.3817C13.173 78.8109 12.4251 77.4198 12.1386 76.6707C11.8681 75.9573 11.8681 75.8978 12.1386 75.2558C12.4569 74.5067 12.4569 74.5067 12.6956 73.0798C12.9184 71.8195 12.9343 65.4938 12.7274 65.6484C12.6479 65.7198 12.1545 66.3499 11.6612 67.0753C11.1519 67.7887 10.4358 68.8112 10.0538 69.3344C9.16265 70.5472 8.65339 71.3676 8.49425 71.7719C8.49425 71.8076 8.43059 71.9384 8.36694 72.0692C8.30328 72.2118 8.14414 72.8539 8.01682 73.496C7.6508 75.2914 7.63488 75.3509 7.45983 76.0524C7.03014 77.7527 6.96649 78.4661 6.96649 81.3436C6.96649 84.5183 7.3166 88.2043 7.6508 88.5015C7.74628 88.5847 7.7622 88.6561 7.71445 88.6561C7.6508 88.6561 7.68263 88.7631 7.77811 88.882C7.85768 89.0128 8.04865 89.429 8.19188 89.8094C8.31919 90.1899 8.46242 90.5823 8.49425 90.6774C8.54199 90.7726 8.63748 91.0936 8.73296 91.379C8.82845 91.6643 9.05125 92.0567 9.2263 92.2351C9.59233 92.6155 10.945 93.1268 11.8999 93.2457C12.8866 93.3646 13.6664 93.9473 13.6664 94.5537C13.6664 94.8152 13.6027 95.0768 13.5391 95.1601C13.3799 95.3384 12.6319 95.5524 12.1545 95.5524C11.9317 95.5524 11.4861 95.6595 11.1519 95.7902C10.5949 96.0043 10.2289 96.0281 7.428 96.0281C4.30882 96.0399 3.73591 95.9805 3.33805 95.6238C2.95611 95.2909 3.08342 94.4585 3.62451 93.65L4.11785 92.9009L3.71999 92.0329C3.38579 91.3076 3.32214 90.9628 3.32214 89.7619C3.32214 88.989 3.24257 87.907 3.14708 87.3482C3.05159 86.7893 2.95611 85.8857 2.92428 85.3268C2.87654 84.768 2.78105 83.8881 2.68557 83.3649C2.606 82.8417 2.44686 81.9024 2.35137 81.2841C2.11266 79.7265 2.11266 79.7384 1.73072 78.1332C1.53975 77.3484 1.36469 76.5161 1.33286 76.2902C1.30103 76.0643 1.20555 75.4222 1.09415 74.8634C0.982749 74.3045 0.839522 73.4247 0.775865 72.9015C0.696294 72.3783 0.600809 71.8314 0.553066 71.6887C0.505323 71.5341 0.584894 71.2725 0.712208 71.0942C0.823607 70.9039 0.935007 70.7018 0.935007 70.6304C0.935007 70.5591 1.12598 70.3807 1.34878 70.2143C1.98534 69.7625 4.08602 66.885 4.78624 65.5057C4.9613 65.1252 5.31141 64.5783 5.53421 64.281C5.77292 63.9838 6.23443 63.2941 6.56863 62.7353C7.12563 61.8198 7.18929 61.5938 7.30069 60.3573C7.36434 59.6082 7.38026 58.9661 7.34843 58.9423C7.33251 58.9185 7.30069 58.9542 7.30069 59.0374C7.30069 59.1088 7.14154 59.3347 6.95057 59.5249C6.71186 59.7746 6.47315 59.8816 6.15486 59.8816C5.88432 59.8816 5.72518 59.9292 5.78884 60.0005C5.83658 60.0719 5.72518 60.1194 5.50238 60.1194C5.00904 60.1194 3.79956 59.2633 3.79956 58.9185C3.79956 58.5143 4.27699 57.135 4.64301 56.4929C4.91356 56.0411 4.99313 55.6606 4.99313 54.8758C4.99313 54.1862 5.05678 53.7938 5.21593 53.663C5.35915 53.5203 5.37507 53.4133 5.26367 53.3063C5.1841 53.235 4.9613 52.9615 4.78624 52.7237C4.38839 52.2005 4.4043 51.1661 4.80216 50.4408C5.08861 49.9414 5.00904 49.442 4.6271 49.228C4.43613 49.1209 4.34064 48.6216 4.21333 47.1115C4.0701 45.5182 4.00645 45.1496 3.83139 45.2685C3.67225 45.3993 3.64042 45.3874 3.64042 45.2566C3.62451 45.1258 3.59268 45.1258 3.46536 45.2804C3.32214 45.4825 3.29031 45.4825 2.97202 45.2685C2.7174 45.0783 2.66965 44.9475 2.74923 44.5789C2.79697 44.3292 2.89245 43.8536 2.9402 43.5325C2.98794 43.1996 3.16299 42.724 3.32214 42.4505C3.49719 42.1295 3.60859 41.642 3.60859 41.0237C3.62451 40.5124 3.65633 40.0011 3.68816 39.906C3.71999 39.8109 3.79956 39.5374 3.86322 39.3115C4.14967 38.4197 4.7385 37.7539 7.73037 34.9596C8.82845 33.9371 9.30587 33.4615 10.6586 32.0227C11.0087 31.6423 11.7407 30.9645 12.2659 30.5365C13.1253 29.8349 13.5709 29.3831 14.2552 28.5508C14.478 28.2654 16.7537 24.8529 17.4699 23.7114C17.7404 23.2715 17.9632 22.8316 17.9632 22.7246C17.9632 22.5105 20.1116 19.3834 20.4936 19.0386C20.78 18.7889 21.5121 17.695 21.703 17.2194C21.7667 17.0648 22.0213 16.6248 22.2759 16.2444C22.5306 15.852 22.7375 15.5191 22.7375 15.4953C22.7375 15.4596 23.0239 15.0672 23.374 14.6273C23.7241 14.1755 24.0106 13.7355 24.0106 13.6523C24.0106 13.5691 24.1379 13.2956 24.313 13.034C24.4721 12.7843 24.5517 12.5108 24.488 12.4276C24.297 12.2017 24.488 11.9639 24.8381 11.9639C25.2837 11.9639 26.2386 11.1791 26.2386 10.8343C26.2386 10.6797 26.35 10.4657 26.4932 10.3587C26.6364 10.2636 26.7001 10.0971 26.6523 10.002C26.6046 9.90685 26.6364 9.82362 26.716 9.82362C26.7956 9.82362 26.9706 9.55014 27.1139 9.20532C27.5276 8.14709 28.0051 7.81416 29.2941 7.63581C29.6283 7.58825 29.8988 7.50501 29.8988 7.44556C29.8988 7.37422 30.058 7.32666 30.249 7.32666C30.5036 7.32666 30.6309 7.24343 30.6468 7.05318C30.6786 6.9105 30.7264 6.49434 30.7741 6.13763C31.0447 4.23519 31.0447 3.86659 30.79 3.29586C30.3922 2.38031 30.4399 2.24951 31.2993 1.88091C31.7449 1.69067 33.0499 1.70256 33.5591 1.8928C33.9729 2.04738 34.132 2.60622 33.8456 2.89159C33.6387 3.08184 33.8297 5.15074 34.0843 5.66202C34.132 5.75715 34.2116 6.09007 34.2752 6.39922C34.323 6.69648 34.4821 7.01751 34.6094 7.10075C34.7368 7.18398 34.8004 7.31477 34.7686 7.40989C34.6413 7.63581 35.4211 8.15898 35.994 8.24221C36.2327 8.27788 36.5351 8.42057 36.6624 8.53947C36.8374 8.7416 36.9966 8.76538 37.5695 8.70593C38.397 8.6227 38.2856 8.6227 39.8452 8.7416C40.5454 8.80105 41.5162 8.94374 41.9936 9.05075C43.044 9.28855 46.37 9.69282 47.484 9.70471C47.9137 9.7166 48.789 9.78795 49.4256 9.87118C50.3486 9.99008 50.635 9.99008 50.9374 9.87118C51.5262 9.62148 53.7065 8.8724 53.8338 8.8724C53.8975 8.8724 54.343 8.7416 54.8205 8.57514C55.2979 8.40868 55.8231 8.27788 55.9822 8.27788C56.2528 8.27788 56.5233 8.1352 57.876 7.26721C58.0829 7.13642 58.4489 6.9105 58.6717 6.76782C59.0696 6.51812 59.7698 6.32788 60.0722 6.39922C60.1517 6.41111 60.3586 6.38733 60.5496 6.33977C60.852 6.25654 61.0429 6.04251 61.4249 5.36477C61.7113 4.85349 62.0455 3.47421 62.0455 2.80836C62.0455 2.16628 62.0933 2.08305 62.4752 1.8928C63.0322 1.61933 64.4008 1.61933 64.9737 1.8928C65.1965 2.01171 65.4989 2.22573 65.6421 2.39219C65.8808 2.67756 65.8808 2.72513 65.4671 3.29586C64.9419 4.05684 64.4645 5.36477 64.3372 6.47056C64.2258 7.31477 64.2417 7.32666 64.735 7.67148C65.0056 7.86172 65.2284 8.06386 65.2284 8.12331C65.2443 8.30166 65.9922 8.90807 66.1196 8.83672C66.1991 8.80105 66.5015 8.86051 66.8039 8.97941C67.3449 9.16965 68.077 9.93063 68.0929 10.3111C68.0929 10.644 69.3661 11.8687 71.037 13.1648C72.7239 14.4727 73.6629 15.3645 74.2199 16.173C74.5541 16.6724 75.6044 17.4928 77.3709 18.6581C77.9597 19.0505 78.6281 19.5974 78.8668 19.8828C79.8535 21.0599 80.2195 21.3572 81.5722 22.0587C82.3361 22.4511 83.1159 22.8435 83.291 22.9267C83.7843 23.1645 85.2802 24.3535 85.2802 24.52C85.2802 24.5913 85.3916 24.7221 85.519 24.8054C85.6622 24.8886 85.7577 25.1502 85.7577 25.4236V25.8993L86.3465 25.8517C86.7444 25.816 87.1581 25.8636 87.5241 26.0063C88.0652 26.2084 89.7362 26.4462 89.7362 26.3273C89.7362 26.2916 89.593 26.0301 89.4339 25.7447C89.2588 25.4593 89.0997 25.0313 89.0678 24.8054C89.0201 24.4368 89.0678 24.3892 89.3861 24.4011C89.6089 24.4011 89.7203 24.3416 89.7044 24.2346C89.6248 23.9017 90.0068 23.9611 90.2136 24.3297C90.4205 24.6983 90.6274 24.7816 90.7229 24.5438C90.8343 24.2941 91.1685 24.5675 91.1685 24.9124C91.1685 25.4236 91.4868 25.5544 92.0915 25.281C92.5053 25.0907 92.6803 25.0788 93.0782 25.1858C93.5556 25.3047 93.5556 25.3166 93.3169 25.5901C93.0941 25.8517 93.0941 25.8755 93.3965 25.9944C93.8898 26.1965 94.7333 25.9349 95.1311 25.4831C95.3221 25.2691 95.6086 24.948 95.7677 24.7578C95.9428 24.5675 96.0542 24.3535 96.0064 24.306C95.9587 24.2465 96.0382 24.0087 96.1815 23.7828C96.3247 23.545 96.4043 23.2834 96.3565 23.1883C96.3088 23.0813 96.4998 22.9148 96.8817 22.7246C97.5978 22.3916 97.7092 22.2371 97.5023 21.8328C97.375 21.595 97.4228 21.4999 97.7251 21.2977C98.1707 21.0124 98.5527 20.2633 98.4095 19.9422C98.3617 19.8233 98.4095 19.645 98.5209 19.5499C98.8073 19.312 99.0938 18.9791 99.3643 18.5511C99.4757 18.3489 99.8577 18.0041 100.192 17.7782C100.876 17.3145 100.988 16.7913 100.51 16.387C100.176 16.1136 100.16 15.9352 100.478 15.8401C100.844 15.745 100.765 15.5547 100.271 15.3645C99.8736 15.2099 99.8099 15.1148 99.794 14.663C99.7622 14.2111 99.8577 14.0447 100.367 13.5453C100.701 13.2361 101.242 12.7962 101.576 12.594C102.149 12.2136 102.149 12.2017 101.911 11.845C101.767 11.6547 101.608 11.4883 101.529 11.4883C101.274 11.4883 101.226 11.0483 101.417 10.5251C101.656 9.81173 101.704 9.76417 102.881 9.27666C104.011 8.80105 105.109 7.89739 104.918 7.57636C104.855 7.46934 104.775 7.1602 104.759 6.88672C104.727 6.60135 104.6 6.1852 104.457 5.94739C104.33 5.70958 104.218 5.38855 104.218 5.23397C104.218 5.09129 104.139 4.92483 104.043 4.87727C103.948 4.8416 103.9 4.7108 103.948 4.5919C103.995 4.46111 103.932 4.3422 103.804 4.30653C103.422 4.19952 103.566 3.97361 104.393 3.37909C105.268 2.73702 105.507 2.72513 106.351 3.2483L106.812 3.53367L107.385 3.11751C108.547 2.26141 112.621 0.549203 113.448 0.549203C116.743 0.561093 117.857 0.632435 118.573 0.88213C119.591 1.23884 120.069 1.22695 120.196 0.84646C120.419 0.168714 122.074 -0.164213 122.774 0.323288L123.14 0.584874L123.984 0.311397C124.716 0.0735921 125.129 0.0260311 127.055 0.00225054C128.28 -0.00963972 129.601 0.0260311 129.999 0.0973727ZM127.692 12.9151C127.739 12.9745 127.867 13.034 127.946 13.034C128.042 13.034 128.058 12.9745 128.01 12.9151C127.962 12.8437 127.835 12.7962 127.755 12.7962C127.66 12.7962 127.644 12.8437 127.692 12.9151ZM129.84 14.0328C129.84 14.0566 129.951 14.116 130.095 14.1517C130.222 14.1873 130.286 14.1755 130.238 14.1041C130.142 13.9852 129.84 13.9376 129.84 14.0328ZM133.102 15.6498C133.15 15.7093 133.293 15.7688 133.389 15.7688C133.5 15.7688 133.484 15.7212 133.341 15.6498C133.039 15.5072 132.975 15.5072 133.102 15.6498ZM135.251 16.72C135.633 16.8983 135.84 16.8508 135.505 16.6605C135.33 16.5654 135.155 16.5178 135.108 16.5535C135.06 16.5892 135.124 16.6605 135.251 16.72ZM138.513 18.1468C138.561 18.2063 138.704 18.2657 138.8 18.2657C138.911 18.2657 138.895 18.2181 138.752 18.1468C138.45 18.0041 138.386 18.0041 138.513 18.1468ZM140.884 19.1575C141.06 19.2526 141.235 19.3002 141.282 19.2645C141.378 19.1931 140.98 18.9791 140.741 18.9791C140.646 18.991 140.725 19.0624 140.884 19.1575ZM143.128 20.0374C143.176 20.1087 143.351 20.1681 143.494 20.1681C143.733 20.1563 143.733 20.1444 143.463 19.9898C143.128 19.7996 142.953 19.8352 143.128 20.0374ZM145.436 20.8816C145.754 21.0361 145.961 21.0361 145.834 20.8816C145.786 20.8102 145.611 20.7627 145.468 20.7627C145.229 20.7627 145.229 20.7864 145.436 20.8816ZM172.57 29.9657C172.872 30.3343 173.333 30.7029 173.572 30.798C174.543 31.1904 175.307 31.8563 175.53 32.5102C175.752 33.1761 176.644 34.1035 176.898 33.9252C177.105 33.7706 177.153 31.7612 176.962 31.4877C176.771 31.2142 172.235 29.181 172.044 29.2761C172.013 29.288 172.251 29.5971 172.57 29.9657ZM178.649 43.5682C177.264 44.4243 176.071 44.8523 174.081 45.1972C172.49 45.4706 171.949 45.435 170.676 44.9356C170.055 44.6978 169.355 44.4243 169.1 44.3411C168.591 44.1389 168.352 43.8417 168.352 43.4255C168.352 43.1639 167.97 42.8786 167.636 42.8786C167.525 42.8786 167.636 43.5206 167.779 43.699C167.843 43.7584 167.954 44.5075 168.034 45.3517C168.13 46.1959 168.336 47.3374 168.527 47.8725C168.702 48.4194 168.925 49.2874 169.005 49.8225C169.212 51.0353 169.212 51.071 169.514 52.2124C169.641 52.7356 169.801 53.3182 169.848 53.5203C169.912 53.7106 169.976 53.9841 170.007 54.1149C170.055 54.2457 170.151 54.7569 170.262 55.2444C170.564 56.8021 170.517 56.7307 171.026 56.481C171.265 56.3621 171.663 56.1838 171.933 56.0886C172.601 55.839 174.877 54.1149 175.546 53.342C176.819 51.8795 178.076 49.8819 178.617 48.4432C178.744 48.1341 178.951 47.706 179.079 47.492C179.492 46.8142 180.447 43.6039 180.447 42.8429C180.447 42.6408 180.431 42.6408 179.954 42.8429C179.699 42.9618 179.094 43.2828 178.649 43.5682ZM33.6069 49.2755C33.4955 49.3231 33.4477 49.4777 33.5114 49.6322C33.5591 49.7749 33.6546 49.87 33.7183 49.8344C33.7978 49.7987 33.8137 49.8819 33.766 50.0127C33.7183 50.1435 33.766 50.3338 33.8774 50.4289C34.0047 50.5359 34.0365 50.7737 33.957 51.1066L33.8615 51.6179L34.3389 50.8807C34.9277 49.977 34.9755 49.5252 34.4662 49.3469C34.0206 49.1804 33.8456 49.1566 33.6069 49.2755ZM33.0021 50.0008C33.3045 50.4527 33.4477 50.4883 33.2249 50.0603C33.018 49.6441 32.9066 49.5133 32.8111 49.5728C32.7793 49.6085 32.8589 49.7987 33.0021 50.0008ZM45.8926 51.3088C45.8449 51.3682 45.8767 51.4514 45.9722 51.499C46.0518 51.5347 46.1313 51.4871 46.1313 51.392C46.1313 51.178 46.0358 51.1423 45.8926 51.3088ZM39.0177 52.4978C39.0177 53.021 39.0654 53.5085 39.145 53.6036C39.2246 53.6987 39.2882 53.342 39.2882 52.7356C39.2882 51.8795 39.2246 51.5585 39.0495 51.5585C39.0336 51.5585 39.0177 51.9865 39.0177 52.4978ZM34.4026 52.1173C34.4503 52.2362 34.4821 52.1649 34.4821 51.9746C34.4821 51.7725 34.4503 51.6892 34.4026 51.7606C34.3707 51.8438 34.3707 52.0103 34.4026 52.1173ZM46.5451 52.7713C46.3064 52.7356 46.2586 52.7832 46.3541 53.0091C46.4019 53.1636 46.4496 53.4966 46.4496 53.7463V54.21L46.8475 53.9365C47.2612 53.6393 47.3408 53.2469 47.1339 52.4978L47.0225 52.0935L46.927 52.4502C46.8634 52.7118 46.7679 52.795 46.5451 52.7713ZM33.6069 53.1874C33.6387 53.3777 33.6705 53.2469 33.6705 52.9258C33.6705 52.5929 33.6387 52.4502 33.6069 52.5929C33.575 52.7475 33.575 53.0091 33.6069 53.1874ZM44.7627 54.4478C44.8423 54.8996 45.0651 55.4585 45.3515 55.8984L45.829 56.6118L45.7494 55.8508C45.6539 55.0304 45.081 53.6987 44.8104 53.6987C44.715 53.6987 44.699 53.9841 44.7627 54.4478ZM42.3597 53.9603C42.4074 54.0554 42.4551 54.0197 42.4551 53.8889C42.4711 53.7582 42.4233 53.6868 42.3756 53.7344C42.3278 53.77 42.3119 53.8771 42.3597 53.9603ZM43.1554 54.4954C43.2031 54.6143 43.2349 54.5429 43.2349 54.3527C43.2349 54.1505 43.2031 54.0673 43.1554 54.1386C43.1235 54.2219 43.1235 54.3883 43.1554 54.4954ZM36.1531 54.317C36.2009 54.4121 36.2486 54.3764 36.2486 54.2457C36.2645 54.1149 36.2168 54.0435 36.169 54.0911C36.1213 54.1268 36.1054 54.2338 36.1531 54.317ZM64.4326 55.6725C64.4326 56.3027 64.7828 57.1469 64.9578 56.9447C65.1647 56.7069 65.2602 55.4822 65.1488 54.8045L65.0215 54.1149L64.735 54.5905C64.5759 54.8521 64.4326 55.3396 64.4326 55.6725ZM47.1498 55.5298C47.0543 55.9697 47.1976 56.4691 47.4045 56.374C47.5954 56.2908 47.7068 55.7082 47.6113 55.3396C47.4999 54.9234 47.2931 55.0185 47.1498 55.5298ZM45.813 57.0874C45.8926 57.1588 45.9244 57.2658 45.8608 57.3015C45.813 57.349 45.8449 57.3847 45.9404 57.3847C46.1791 57.3847 46.3064 57.1944 46.195 56.9923C46.1472 56.8853 46.004 56.8377 45.8767 56.8734C45.7176 56.921 45.7016 56.9804 45.813 57.0874ZM46.37 57.9792C46.3223 58.0386 46.3541 58.0981 46.4337 58.0981C46.5292 58.0981 46.6087 58.0386 46.6087 57.9792C46.6087 57.9079 46.5769 57.8603 46.5451 57.8603C46.4974 57.8603 46.4178 57.9079 46.37 57.9792ZM63.4141 58.764C63.3982 58.8353 63.255 59.0493 63.0959 59.2277C62.8253 59.5368 62.8094 59.7746 62.889 62.2478C62.9526 63.9124 63.064 65.2323 63.2073 65.7079C63.3346 66.1359 63.446 66.8256 63.446 67.2536C63.4619 68.2167 63.7483 70.8326 63.8597 70.9039C63.9075 70.9396 64.0189 70.7256 64.1144 70.4521C64.2099 70.1667 64.4326 69.5841 64.5918 69.156C64.7509 68.728 64.9578 67.7173 65.0692 66.8969C65.1647 66.0765 65.3079 65.1371 65.3875 64.8161C65.4671 64.4832 65.6421 63.2823 65.7854 62.1408C65.9286 60.9993 66.1196 59.9649 66.1991 59.8579C66.3105 59.6914 66.2946 59.6438 66.1036 59.6438C65.9604 59.6438 65.8649 59.5368 65.8649 59.3822V59.1326L65.4989 59.3822C64.9896 59.739 64.8623 59.7152 64.9737 59.2396C65.0374 59.0255 65.0056 58.7164 64.926 58.5618C64.7987 58.2883 64.7828 58.2883 64.544 58.7164C64.2417 59.2515 63.9552 59.299 63.9552 58.8234C63.9552 58.6332 63.9075 58.3835 63.8438 58.2646C63.7643 58.0862 63.7165 58.0981 63.5892 58.3478C63.5096 58.5024 63.4301 58.6926 63.4141 58.764ZM42.3597 61.1539C42.4074 61.2728 42.4392 61.2015 42.4392 61.0112C42.4392 60.8091 42.4074 60.7259 42.3597 60.7972C42.3278 60.8804 42.3278 61.0469 42.3597 61.1539ZM50.3168 61.9268C50.3645 62.01 50.3963 61.9505 50.3963 61.7841C50.3963 61.6176 50.3645 61.5582 50.3168 61.6295C50.2849 61.7127 50.2849 61.8554 50.3168 61.9268ZM50.5873 63.092L50.7624 63.3893L50.6669 63.092C50.635 62.9255 50.5873 62.6877 50.5714 62.557C50.5396 62.331 50.5396 62.331 50.4759 62.557C50.4441 62.6996 50.4918 62.9374 50.5873 63.092ZM47.9296 64.0076C47.9774 64.1265 48.0092 64.0313 48.0092 63.8054C48.0092 63.5795 47.9774 63.4844 47.9296 63.5914C47.8978 63.7103 47.8978 63.9006 47.9296 64.0076Z"/>
  <path d="M72.3867 12.8438C72.3867 12.8676 72.2753 12.927 72.1321 12.9627C72.0048 12.9984 71.9411 12.9865 71.9889 12.9151C72.0843 12.7962 72.3867 12.7487 72.3867 12.8438Z"/>
</svg>

