<svg width="134" height="99" viewBox="0 0 134 99" xmlns="http://www.w3.org/2000/svg">
  <path d="M45.5192 0.125074C45.9245 0.324476 46.6624 0.362458 46.839 0.201037C46.9325 0.115579 47.0261 0.144065 47.2339 0.29599C47.3898 0.400439 47.5561 0.466907 47.608 0.438421C47.66 0.41943 47.8159 0.466907 47.9613 0.552365C48.1796 0.6853 48.2835 0.694795 48.4913 0.599842C48.8551 0.447916 49.0629 0.466907 49.2188 0.656814C49.3331 0.799244 49.385 0.808739 49.5617 0.704291C49.6864 0.647318 49.8007 0.590346 49.8319 0.590346C49.8735 0.590346 49.8631 0.647318 49.8215 0.704291C49.7799 0.770758 49.8527 0.742272 49.9774 0.647318C50.1956 0.466907 50.2164 0.466907 50.497 0.618832C50.8711 0.818235 51.1309 0.82773 51.1309 0.637823C51.1309 0.438421 51.2868 0.457411 51.4634 0.694795C51.5362 0.808739 51.8272 0.97016 52.0973 1.06511C52.5338 1.21704 52.5858 1.21704 52.5858 1.0841C52.5858 1.00814 52.5026 0.856216 52.3987 0.751767C52.222 0.56186 52.222 0.56186 52.5546 0.732777C52.8871 0.913188 52.8975 0.913188 53.043 0.732777C53.1885 0.552365 53.2093 0.552365 53.521 0.704291C53.7081 0.799244 53.9367 0.875207 54.0406 0.875207C54.1446 0.875207 54.2589 0.913188 54.3004 0.960665C54.3836 1.0936 54.9863 1.34997 55.0798 1.3025C55.1318 1.27401 55.1838 1.34997 55.2045 1.46392C55.2253 1.60635 55.2981 1.67282 55.4228 1.67282C55.5579 1.66332 55.5994 1.72979 55.5994 1.93869C55.5994 2.18557 55.6202 2.21405 55.7553 2.1096C55.88 2.01465 55.9112 2.02414 55.9112 2.18557C55.9112 2.43244 56.0982 2.55588 56.5035 2.56538C56.8257 2.57487 56.8465 2.55588 56.8465 2.23304C56.8465 1.89121 56.8465 1.89121 57.0543 2.06213C57.2206 2.20456 57.2518 2.30901 57.1998 2.5274C57.1374 2.82175 57.1374 2.82175 57.3453 2.65084C57.6363 2.41345 57.8961 2.47992 58.0311 2.83125C58.0935 2.99267 58.2806 3.23955 58.4572 3.37248C58.7482 3.60037 58.7586 3.62886 58.6443 3.91372C58.5196 4.20808 58.53 4.21757 58.769 4.17009C58.9976 4.13211 59.0288 4.1606 59.0288 4.40748C59.0288 4.61638 58.9456 4.72082 58.6651 4.87275C58.2909 5.07215 58.187 5.24307 58.4364 5.24307C58.6443 5.24307 59.1327 5.47096 59.1327 5.56591C59.1327 5.61339 59.2054 5.5944 59.2886 5.52793C59.3821 5.46146 59.4756 5.43298 59.5172 5.47096C59.6315 5.57541 59.2366 5.88875 58.9041 5.94573C58.6547 5.9932 58.6027 6.04068 58.6443 6.18311C58.6755 6.29705 58.6339 6.39201 58.5404 6.42049C58.3221 6.49646 58.4572 6.63889 58.8209 6.70535C59.1015 6.75283 59.1327 6.78132 59.0288 6.94274C58.8625 7.24659 58.9041 7.32255 59.2886 7.38902C59.486 7.4175 59.6835 7.48397 59.7146 7.53145C59.7458 7.57893 59.8601 7.61691 59.9848 7.61691C60.1615 7.61691 60.1823 7.65489 60.1199 7.8258C59.8601 8.50947 60.1615 9.16465 60.8682 9.4685C61.0864 9.56345 61.3358 9.69639 61.4189 9.76286C62.1048 10.3231 62.1879 10.3706 62.5932 10.3706C62.905 10.3706 63.0712 10.4275 63.2479 10.6079C63.4246 10.7789 63.5908 10.8453 63.8714 10.8453C64.1 10.8453 64.3495 10.9118 64.4638 11.0067C64.6196 11.1397 64.8587 11.1777 65.5757 11.1777C66.1057 11.1872 66.5525 11.2346 66.6357 11.2916C66.7292 11.3676 66.9059 11.3771 67.1865 11.3201C67.4151 11.2726 67.7684 11.2251 67.9762 11.2251C68.1841 11.2251 68.4127 11.1587 68.4855 11.0827C68.5894 10.9688 68.6517 10.9593 68.7556 11.0447C68.8596 11.1207 68.9427 11.1207 69.0362 11.0542C69.1298 10.9783 69.2233 11.0352 69.4103 11.2821C69.6805 11.6429 70.7301 12.2506 71.655 12.602C71.9771 12.7159 72.2577 12.8394 72.2993 12.8773C72.3305 12.9058 72.476 12.9343 72.6007 12.9343C72.7358 12.9343 72.8709 12.9723 72.902 13.0293C72.9332 13.0767 73.0787 13.1242 73.2242 13.1242C73.4008 13.1242 73.5048 13.2002 73.5775 13.3616C73.6399 13.504 73.7542 13.599 73.8893 13.599C74.0036 13.599 74.0971 13.6465 74.0971 13.7034C74.0971 13.7509 74.2114 13.9598 74.3569 14.1497C74.5024 14.3396 74.6167 14.5865 74.6167 14.6909C74.6167 14.8429 74.7934 14.9663 75.3961 15.2132C76.612 15.7164 76.9341 16.1627 76.082 16.1627C75.6559 16.1627 75.2714 16.3621 75.3857 16.5235C75.4896 16.685 76.1339 16.666 76.4976 16.4856C76.9133 16.2957 76.9861 16.3716 76.6951 16.704C76.4976 16.9318 76.4873 16.9698 76.6431 16.9983C76.7367 17.0173 76.851 17.1407 76.9029 17.2642C76.9757 17.4256 77.0796 17.4921 77.2666 17.4921C77.4121 17.4921 77.5264 17.549 77.5264 17.625C77.5264 17.6915 77.7135 17.8624 77.9421 18.0048C78.1707 18.1378 78.3578 18.2897 78.3578 18.3467C78.3578 18.4891 77.9213 18.7265 77.6512 18.7265C77.3498 18.7265 77.2563 18.9544 77.4537 19.2297C77.5368 19.3437 77.9525 19.7615 78.3682 20.1508C78.7839 20.5401 79.397 21.1573 79.7295 21.5276C80.0517 21.8884 80.6129 22.5056 80.9558 22.8854C81.2987 23.2652 81.6313 23.683 81.6832 23.816C81.7456 23.9679 81.8495 24.0439 81.9326 24.0154C82.0262 23.9774 82.0573 24.0154 82.0262 24.1388C81.9638 24.3572 82.3587 24.6136 82.7432 24.6136C82.9614 24.6136 83.0342 24.6611 83.0342 24.8035C83.0342 24.9269 83.1277 25.0124 83.3148 25.0504C83.8344 25.1548 84.4059 25.4492 84.541 25.6771C84.6034 25.8005 84.7177 25.886 84.78 25.8765C84.8528 25.8575 84.9047 25.905 84.9047 25.9809C84.9047 26.2848 85.2685 26.7026 85.5283 26.7026C85.8608 26.7026 86.0478 26.864 86.0478 27.1488C86.0478 27.3198 86.1102 27.3672 86.2973 27.3672C86.4324 27.3672 86.5674 27.4337 86.609 27.5097C86.6402 27.5856 86.7545 27.6521 86.8584 27.6521C86.9623 27.6521 87.2845 27.804 87.5651 27.9844C87.8457 28.1648 88.147 28.3168 88.2405 28.3168C88.4796 28.3168 89.1758 28.5921 89.3941 28.7631C89.5707 28.915 89.924 28.9814 90.7346 29.0194C91.0256 29.0384 91.327 29.1239 91.4828 29.2378C91.7115 29.3992 91.8777 29.4277 92.5948 29.4087C93.0624 29.3897 93.4677 29.3518 93.4989 29.3233C93.5404 29.2948 93.9353 29.2663 94.3822 29.2663C94.8498 29.2663 95.1928 29.2283 95.1928 29.1714C95.1928 29.1144 95.4526 29.0764 95.7643 29.0764C96.2008 29.0764 96.3151 29.0479 96.2735 28.9435C96.232 28.858 96.3463 28.801 96.6476 28.7536L97.0841 28.6871L96.9074 28.4497L96.7308 28.2028L97.0529 28.2693C97.4582 28.3453 97.7908 28.1933 97.718 27.937C97.6764 27.785 97.718 27.747 97.9466 27.747C98.1545 27.747 98.3623 27.6331 98.6429 27.3577C98.8611 27.1488 99.0794 26.9969 99.1313 27.0254C99.2456 27.0919 100.243 25.5156 100.337 25.1168C100.368 24.9459 100.451 24.7845 100.503 24.756C100.555 24.718 100.597 24.6231 100.597 24.5376C100.597 24.4522 100.721 24.2718 100.877 24.1198C101.189 23.8255 101.127 23.6356 100.804 23.9014C100.451 24.1863 100.43 23.9679 100.742 23.4172C100.96 23.0374 101.158 22.838 101.449 22.705L101.854 22.5151L101.625 22.2302C101.324 21.8409 101.418 21.4801 101.823 21.5086C102.187 21.5371 102.207 21.2712 101.844 21.1858L101.584 21.1288L101.875 21.0148C102.041 20.9579 102.239 20.9104 102.322 20.9104C102.415 20.9104 102.467 20.8059 102.467 20.5876C102.467 20.1128 102.55 19.9704 102.987 19.771C103.434 19.5621 103.974 18.8784 104.14 18.2992C104.348 17.6155 104.348 17.6155 104.473 17.8434C104.525 17.9668 104.608 18.0618 104.66 18.0618C104.795 18.0618 105.159 17.2642 105.304 16.6375C105.387 16.2957 105.522 15.8874 105.616 15.7259C105.699 15.5645 105.896 15.0803 106.032 14.634C106.177 14.1972 106.375 13.637 106.478 13.3901C106.686 12.8963 106.624 12.7349 106.312 12.9153C106.073 13.0482 105.689 13.0672 105.689 12.9438C105.689 12.8963 105.761 12.8109 105.845 12.7444C105.928 12.6779 106 12.5735 106 12.507C106 12.4311 106.125 12.2506 106.271 12.0892C106.468 11.8708 106.51 11.7664 106.426 11.6239C106.343 11.4815 106.395 11.4056 106.665 11.2062C106.853 11.0637 107.112 10.7599 107.237 10.5225C107.351 10.2851 107.497 10.0857 107.538 10.0857C107.757 10.0857 107.902 9.478 107.964 8.34805C108.027 7.20861 108.048 7.11365 108.276 6.94274C108.546 6.74333 108.775 6.71485 109.16 6.84778C109.357 6.92375 109.471 6.90476 109.669 6.75283C110.043 6.48696 110.521 6.52494 111.238 6.89526C112.121 7.34154 112.339 7.37003 113.036 7.14214C113.368 7.03769 113.774 6.95223 113.94 6.95223C114.21 6.95223 117.296 7.88278 117.795 8.11067C117.91 8.16764 118.232 8.42401 118.512 8.68039C119.936 9.99075 121.994 10.7789 124.332 10.9023C125.174 10.9498 125.465 11.0067 125.818 11.1872C126.057 11.3106 126.691 11.5195 127.221 11.6524C127.751 11.7854 128.634 12.0417 129.174 12.2316C130.12 12.564 130.203 12.621 131.211 13.542C132.115 14.3776 132.282 14.5865 132.5 15.1182C132.635 15.4601 132.916 16.1247 133.144 16.5995C133.362 17.0743 133.539 17.568 133.539 17.6915C133.539 18.0238 133.258 18.3467 132.968 18.3467C132.386 18.3467 131.627 18.5745 131.055 18.9259C130.723 19.1253 130.338 19.2962 130.203 19.2962C130.068 19.2962 129.403 19.1443 128.728 18.9544L127.512 18.5935L126.597 18.8594C126.098 19.0018 125.62 19.1538 125.537 19.1917C125.319 19.2962 125.246 20.9294 125.34 23.2842C125.392 24.3002 125.423 26.7785 125.423 28.7915C125.433 36.2454 125.059 38.5433 123.573 40.015L123.074 40.5088L122.794 40.3474C122.472 40.148 122.451 40.0055 122.721 39.7017C122.825 39.5783 123.147 39.056 123.438 38.5528C124.041 37.5083 124.197 36.8816 124.405 34.5837C124.529 33.2544 124.592 23.9109 124.477 23.8065C124.446 23.778 124.29 23.8255 124.124 23.9014C123.916 23.9964 123.532 24.0344 122.939 24.0249C122.149 24.0154 121.89 24.0534 120.497 24.4617C119.022 24.8889 118.627 25.0504 117.899 25.4682C117.723 25.5631 117.463 25.6771 117.307 25.7055C117.057 25.7625 117.005 25.7245 116.714 25.2593C116.538 24.9839 116.268 24.4712 116.122 24.1103C115.966 23.7495 115.81 23.5026 115.748 23.5311C115.696 23.5691 115.53 23.816 115.395 24.0818C115.187 24.4996 115.156 24.6611 115.208 25.1928C115.26 25.6201 115.239 25.8385 115.156 25.886C115.083 25.9334 115.041 25.8575 115.041 25.6676C115.041 25.3162 114.917 25.2878 114.73 25.6106C114.615 25.81 114.615 25.867 114.761 26.0094C114.886 26.1328 114.896 26.2278 114.813 26.3512C114.719 26.5221 114.709 26.5221 114.491 26.3512C114.283 26.1898 114.283 26.1898 114.356 26.3607C114.397 26.4747 114.356 26.6076 114.231 26.7405C114.013 26.9589 113.794 27.4812 113.794 27.785C113.794 27.899 113.638 28.1933 113.441 28.4402C113.025 28.972 111.945 30.947 111.57 31.8301C111.176 32.7891 110.084 34.8496 109.586 35.5807C109.284 36.0365 108.598 36.7297 107.486 37.7172C105.45 39.5403 104.733 40.11 103.61 40.8032C102.405 41.5438 99.308 42.9301 98.0506 43.2909C96.4918 43.7467 93.2079 44.174 91.2438 44.174C89.2486 44.174 85.1853 43.7182 83.7097 43.3194C83.3044 43.215 82.7432 43.082 82.4626 43.0346C82.1717 42.9776 81.7352 42.8731 81.4754 42.7972C79.9789 42.3604 78.2123 41.8951 78.0564 41.8951C77.9525 41.8951 77.4953 42.3319 76.9445 42.9586C75.5624 44.5538 75.3026 44.7912 73.9828 45.6078C73.3177 46.0256 72.715 46.4244 72.6422 46.5004C72.4967 46.6523 71.8005 49.273 71.1874 51.9317C70.9587 52.9382 70.6262 54.2011 70.4495 54.7328C69.7948 56.7459 69.5558 58.1417 69.3168 61.3796C69.2545 62.2057 69.1609 63.1267 69.0986 63.4211C68.9739 63.9908 68.9947 64.6365 69.2233 69.0613C69.348 71.5586 69.348 71.5966 69.1298 71.9099C68.8803 72.2897 68.0178 74.6731 67.8619 75.4137C67.6229 76.5722 67.5502 78.1389 67.6541 80.3513C67.7892 83.1429 67.8931 84.2254 68.2776 86.3809C68.6205 88.3464 68.7556 88.7167 69.3272 89.5333C69.9091 90.3404 70.1378 90.9576 70.304 92.0971C70.4807 93.3599 70.7405 93.6923 72.2577 94.6323C72.9228 95.0406 73.5463 95.259 74.44 95.4014C74.8765 95.4679 75.2818 95.8857 75.7182 96.7308C76.1547 97.5759 76.03 97.7278 74.8661 97.7278C74.5336 97.7278 74.3777 97.7753 74.2738 97.9177C74.0555 98.2026 73.5152 98.2311 70.304 98.1171C66.5941 97.9747 65.69 97.8228 65.0769 97.2245C64.8587 97.0156 64.8483 96.9587 64.9522 96.5409C65.0145 96.294 65.1289 95.9712 65.212 95.8287C65.3575 95.5724 65.3575 95.5629 65.0353 95.5059C64.8587 95.4774 64.204 95.4489 63.5805 95.4489C61.7826 95.4489 60.3589 95.0501 59.9017 94.4234C59.7043 94.1575 59.6835 94.0626 59.777 93.7587C59.9329 93.2555 60.1303 92.9232 60.5564 92.4959C60.9097 92.1445 60.9305 92.0781 60.9409 91.4704C60.9409 90.8437 60.9201 90.7867 60.5044 90.2455C60.2654 89.9321 60.0368 89.5428 60.0056 89.3814C59.9641 89.22 60.016 88.6977 60.1095 88.2135C60.4317 86.4663 60.6187 84.6147 60.7954 81.4053C61.0032 77.6071 60.9097 74.5212 60.4733 70.3337C60.1719 67.4091 60.1823 66.7919 60.5252 65.9658C61.2942 64.1712 62.1152 59.9458 62.5101 55.8058C62.6036 54.8658 62.7907 53.2421 62.9258 52.1976C63.331 49.1686 63.3518 48.8077 63.144 48.1336C63.0401 47.8107 62.8946 47.4024 62.8114 47.2315L62.6556 46.9087L62.2918 47.165C61.128 47.9816 58.956 48.0671 55.4747 47.4404C54.3524 47.2315 54.103 47.2125 53.7601 47.317C53.4899 47.3929 51.9623 47.4404 48.9486 47.4689C44.8957 47.5069 44.3865 47.4974 42.8173 47.3075C41.8717 47.203 40.6766 47.0226 40.1674 46.9277C39.6478 46.8232 38.9619 46.6903 38.619 46.6333C38.2864 46.5763 37.7461 46.4434 37.4239 46.3389C37.1018 46.244 36.5406 46.1016 36.1665 46.0256C33.7971 45.5793 29.6507 43.3479 25.681 40.4044C23.3948 38.6952 22.5115 38.097 22.4283 38.1729C22.3868 38.2109 22.3972 39.0085 22.4595 39.9391C22.5738 41.6008 22.5738 41.6577 22.3452 42.1515C22.2205 42.4364 22.1374 42.7592 22.1685 42.8731C22.1997 42.9871 22.3556 43.4903 22.5011 43.9841C22.6569 44.4874 22.7817 45.1615 22.792 45.5034C22.8024 46.0731 22.7609 46.1965 22.2621 47.0891C21.9607 47.6303 21.5242 48.5893 21.2956 49.2255C20.7864 50.5929 20.2356 51.7228 19.7368 52.3875C19.5394 52.6534 19.1549 53.2801 18.8847 53.7738C18.3859 54.6854 18.3859 54.6949 18.3859 55.6254C18.3859 56.1476 18.417 56.8883 18.4586 57.2776C18.5521 58.3791 18.3235 62.2057 18.0741 63.554C17.9494 64.2092 17.8455 65.1967 17.8455 65.7759C17.8351 66.8964 18.2092 70.0583 18.4378 70.761C18.7392 71.682 19.0302 73.0589 19.2276 74.5117C19.4978 76.5437 20.059 78.5472 21.358 82.1079C22.7817 86.02 23.1973 86.9791 23.7273 87.5773C24.382 88.3084 24.7873 88.8591 25.3277 89.7327C25.972 90.7772 26.7098 91.3944 27.9153 91.8787C28.6011 92.1635 29.0376 92.268 29.6299 92.3154C30.4717 92.3819 30.8978 92.5623 31.407 93.0466C31.8123 93.4359 31.9162 93.7492 31.7811 94.1765C31.6148 94.6798 31.5421 94.7558 31.0952 94.8127C29.9729 94.9836 26.9904 95.1925 25.6706 95.202C24.3301 95.2115 24.1222 95.1925 23.8001 95.0121C23.1869 94.6893 23.0726 94.3285 23.2285 93.1985L23.3116 92.6193L22.4283 91.8217L21.545 91.0336L21.1605 89.8277C20.9527 89.163 20.6409 88.3084 20.4642 87.9286C20.2876 87.5488 19.7472 86.2954 19.2588 85.1465C17.0765 80 14.3953 74.8155 12.5144 72.1093C12.1819 71.6251 11.8285 71.1123 11.7454 70.9699C11.6623 70.8275 11.5583 70.6945 11.5064 70.685C11.4648 70.666 11.4336 70.5901 11.4336 70.5236C11.4336 70.4477 11.3505 70.3337 11.2466 70.2672C11.018 70.1153 10.3944 69.0139 10.3944 68.767C10.3944 68.672 10.488 68.2257 10.5919 67.7984C11.2674 65.1208 11.9221 56.0432 11.444 56.0432C11.2985 56.0432 11.0284 57.0402 10.4464 59.6324C9.90603 62.0443 9.31368 63.8959 8.43037 65.9469C8.35763 66.1273 8.31606 67.5516 8.31606 70.3622C8.31606 73.6571 8.28488 74.6256 8.16018 75.0814C7.91077 76.0499 7.96273 77.3793 8.43037 81.6807C8.48233 82.2314 8.66938 83.4848 8.83566 84.4818C9.00193 85.4693 9.17859 86.6942 9.24094 87.1975C9.39682 88.4508 9.78132 89.5998 10.4984 90.9386C10.8413 91.5653 11.1842 92.3439 11.2674 92.6668C11.4544 93.4169 11.7038 93.7872 12.4624 94.4234C13.1483 95.0026 13.9693 95.335 14.9565 95.4489C15.5592 95.5249 15.6632 95.5724 16.1308 95.9901C16.7128 96.5029 16.9414 96.8447 16.9414 97.1961C16.9414 97.4904 16.5881 97.7278 16.1412 97.7278C15.923 97.7278 15.7567 97.7943 15.6528 97.9367C15.4345 98.2216 14.8526 98.288 12.4728 98.288C10.3009 98.2975 8.82526 98.1836 8.2641 97.9747C7.68215 97.7468 7.57823 96.9872 7.99391 95.9901C8.27449 95.316 8.10822 94.8697 7.16255 93.8347L6.77805 93.3979L6.70531 91.8407C6.5806 88.7642 6.37276 87.3399 5.51023 83.5797C5.292 82.6112 5.06338 81.4813 5.00103 81.073C4.86593 80.2089 4.40868 78.3953 3.95144 76.914C3.47341 75.3378 2.18481 71.701 1.96658 71.2927C1.86266 71.0838 1.76913 70.8465 1.76913 70.761C1.76913 70.6755 1.65482 70.4666 1.50933 70.2862C1.36384 70.1058 1.24953 69.9254 1.24953 69.8874C1.24953 69.8399 1.08326 69.5836 0.875421 69.3082C0.542879 68.8714 0.511703 68.767 0.553271 68.3872C0.584446 68.1498 0.865029 67.4186 1.18718 66.754C1.95618 65.1492 2.40304 63.8674 2.86028 62.0063C3.07851 61.1517 3.37988 60.0123 3.53576 59.4615C4.2528 57.0497 4.37751 55.9008 4.30476 52.3495C4.2528 49.5959 4.21124 49.0356 4.08653 49.1496C3.99301 49.2255 3.84752 49.9757 3.73321 50.9442C3.68125 51.4 3.52537 52.0741 3.39027 52.435C3.15126 53.0617 3.14087 53.1281 3.28635 53.4415C3.49419 53.8878 3.43184 53.9257 3.06812 53.5744C2.90185 53.413 2.7044 53.2895 2.63166 53.2895C2.46539 53.2895 2.455 53.1566 2.62127 52.9097C2.7148 52.7768 2.7148 52.6818 2.62127 52.5109C2.55892 52.3875 2.47578 52.1881 2.455 52.0552C2.43421 51.9222 2.33029 51.6279 2.23677 51.3905C2.14324 51.1531 2.03932 50.6024 2.00814 50.1561C1.97697 49.6908 1.89383 49.292 1.8107 49.2065C1.72756 49.1211 1.69639 48.9597 1.73795 48.8362C1.76913 48.7128 1.74834 48.5893 1.6756 48.5419C1.57168 48.4944 1.57168 48.3805 1.66521 48.0576C1.76913 47.7348 1.75874 47.4974 1.66521 47.0036C1.50933 46.282 1.58207 45.9306 2.03932 45.0951C2.17441 44.8387 2.28873 44.5918 2.28873 44.5348C2.28873 44.4874 2.48617 44.0031 2.7148 43.4619C3.02655 42.7592 3.13047 42.4079 3.07851 42.2275C2.98499 41.9046 2.78754 41.9711 2.63166 42.3794C2.52774 42.6642 2.50696 42.6737 2.50696 42.4648C2.49657 42.2275 2.55892 42.123 3.16165 41.3254C3.4838 40.9171 3.51498 40.6322 3.56694 37.9546C3.56694 37.6697 3.34871 35.8466 3.10969 34.2988C2.99538 33.5392 2.90185 32.6182 2.89146 32.2573C2.87068 31.3933 3.0993 27.7186 3.23439 26.7785C3.45262 25.2783 4.10732 23.9964 5.43749 22.5341C5.88434 22.0308 6.37276 21.4231 6.50786 21.1858C6.63256 20.9484 6.91314 20.4926 7.11059 20.1888C7.31843 19.8849 7.4847 19.5526 7.4847 19.4576C7.4847 19.3722 7.51588 19.2962 7.56784 19.2962C7.60941 19.2962 7.70293 19.1633 7.78607 19.0018C7.85881 18.8404 8.14979 18.5556 8.43037 18.3751C8.71095 18.1947 8.93957 18.0048 8.93957 17.9479C8.93957 17.8909 9.05389 17.7674 9.19937 17.663C9.34486 17.5585 9.45917 17.3971 9.45917 17.3022C9.45917 17.1977 9.51113 17.0078 9.58388 16.8844C9.6774 16.685 9.66701 16.609 9.53192 16.4666C9.31368 16.2482 9.31368 15.9538 9.51113 15.4316C9.59427 15.2132 9.63584 14.9663 9.60466 14.8998C9.54231 14.7479 10.488 13.9218 10.914 13.7509C11.0595 13.6939 11.3817 13.5325 11.6415 13.3901C11.9013 13.2571 12.3897 13.0577 12.7326 12.9438C13.751 12.6305 14.5928 12.2886 14.7175 12.1367C14.7799 12.0512 14.9773 11.9848 15.154 11.9848C15.3306 11.9848 15.5073 11.9373 15.5385 11.8898C15.5696 11.8328 15.8087 11.7949 16.0477 11.7949C16.2971 11.7949 16.7024 11.7284 16.9414 11.6524C17.1804 11.5765 17.4194 11.529 17.461 11.5575C17.5025 11.586 17.5961 11.5385 17.6688 11.4625C17.7623 11.3581 18.0117 11.3201 18.5625 11.3201C19.2172 11.3201 19.3523 11.2916 19.4562 11.1302C19.529 11.0257 19.6641 10.9403 19.7472 10.9403C19.8407 10.9403 20.007 10.8833 20.1109 10.8073C20.2148 10.7409 20.3915 10.7029 20.4954 10.7314C20.6201 10.7599 20.6825 10.7219 20.6825 10.6174C20.6825 10.418 20.9735 10.3231 21.7736 10.2376C22.3764 10.1712 23.4052 9.81033 23.5403 9.60144C23.5818 9.55396 23.7169 9.45901 23.8312 9.41153C23.9559 9.36405 24.3612 9.17414 24.7353 8.99373C25.1094 8.81332 25.4732 8.6614 25.5459 8.6614C25.6187 8.6614 25.7018 8.58543 25.7434 8.49048C25.7745 8.40502 25.8681 8.26259 25.9408 8.18663C26.0135 8.11067 26.0655 7.99672 26.0551 7.94924C26.0447 7.89227 26.1798 7.8448 26.3669 7.8258C26.5851 7.80681 26.7202 7.73085 26.7618 7.61691C26.8241 7.427 28.1335 6.57242 28.3413 6.57242C28.5492 6.57242 28.8817 6.05017 28.8194 5.83178C28.7778 5.66086 28.7986 5.63238 28.9337 5.67986C29.1623 5.75582 29.7235 5.53742 29.7235 5.376C29.7235 5.30004 29.7962 5.24307 29.8794 5.24307C30.0976 5.24307 30.0768 5.14812 29.7962 4.88225L29.5676 4.65436L29.9833 4.72082C30.3262 4.7778 30.3782 4.7683 30.2639 4.66385C30.0664 4.46445 30.1184 4.29353 30.3678 4.32202C30.5548 4.34101 30.6172 4.28404 30.638 4.07514C30.6588 3.90422 30.7315 3.81877 30.8562 3.81877C30.9497 3.81877 31.2199 3.73331 31.4381 3.61936C31.7083 3.49592 31.9681 3.44845 32.1864 3.47693C32.5397 3.52441 32.6124 3.45794 32.415 3.27753C32.3422 3.21106 32.5501 3.16359 33.1424 3.1351C33.8283 3.09712 34.0361 3.04964 34.2336 2.87873C34.3687 2.76478 34.6493 2.65084 34.8571 2.61286C35.3767 2.53689 35.4183 2.42295 34.9818 2.23304C34.774 2.14758 34.6077 2.04314 34.6077 2.01465C34.6077 1.97667 34.7844 1.9102 34.9922 1.86272C35.3143 1.79626 35.3871 1.72979 35.3767 1.55887C35.3663 1.35947 35.4079 1.34048 35.6365 1.39745C36.0626 1.5019 36.9874 1.55887 37.1641 1.5019C37.2992 1.45442 37.268 1.38796 36.9874 1.15057C36.551 0.770758 36.6861 0.656814 37.611 0.609337C38.1721 0.580851 38.3176 0.54287 38.2761 0.438421C38.2137 0.277 38.5151 0.258009 38.9204 0.400439C39.1282 0.476402 39.2321 0.466907 39.3464 0.352963C39.7309 0.0111298 39.8037 0.00163448 42.1003 0.0491112C42.8589 0.068102 43.2642 0.115579 43.3889 0.210532C43.6695 0.41943 44.48 0.390944 44.8438 0.15356C45.1555 -0.0458423 45.1659 -0.0458423 45.5192 0.125074ZM59.1327 7.70237C59.1327 7.80681 59.538 7.90177 59.6003 7.80681C59.6211 7.76883 59.6211 7.71186 59.5796 7.67388C59.4756 7.58842 59.1327 7.60741 59.1327 7.70237ZM120.528 20.4261C118.554 21.1478 117.546 21.5846 117.244 21.8314C117.172 21.8979 117.057 21.9549 116.995 21.9549C116.756 21.9549 117.473 23.9869 117.795 24.2338C117.899 24.3192 118.315 24.2338 119.635 23.854C121.952 23.1893 122.201 23.0753 122.544 22.5721C122.815 22.1638 122.825 22.1353 122.763 20.9199C122.731 20.2362 122.669 19.676 122.638 19.676C122.596 19.676 121.651 20.0178 120.528 20.4261ZM102.841 20.5496C102.488 20.9959 102.779 21.2807 103.247 20.9674C103.423 20.8534 103.434 20.7965 103.319 20.5876C103.174 20.2837 103.049 20.2742 102.841 20.5496ZM122.731 22.7145C122.731 22.9899 123.209 23.816 123.407 23.8919C123.646 23.9679 123.615 23.9774 124.03 23.6546C124.29 23.4457 124.394 23.2842 124.394 23.0848C124.394 22.819 124.373 22.8095 123.895 22.8095C123.615 22.8095 123.303 22.7525 123.189 22.667C122.908 22.4771 122.731 22.4961 122.731 22.7145ZM3.79556 48.1621C3.70203 48.4279 3.69164 48.6368 3.7436 48.7318C3.82674 48.8552 3.83713 48.8552 3.84752 48.7128C3.84752 48.6273 3.89948 48.5419 3.95144 48.5229C4.01379 48.5039 4.08653 48.1716 4.10732 47.7822C4.15928 47.0226 4.16967 47.0036 3.79556 48.1621ZM2.88107 50.1561C2.81872 51.2575 2.92264 51.2575 3.12008 50.1371C3.224 49.5389 3.224 49.368 3.12008 49.254C3.04734 49.1686 2.9746 49.1211 2.9642 49.1306C2.95381 49.1496 2.91224 49.6054 2.88107 50.1561ZM2.80832 51.8557C2.80832 52.0646 3.07851 52.4065 3.17204 52.321C3.21361 52.283 3.21361 52.0836 3.17204 51.8652C3.10969 51.5424 3.07851 51.4949 2.95381 51.5899C2.87068 51.6469 2.80832 51.7703 2.80832 51.8557ZM63.8195 78.0724C63.7571 78.6706 63.674 80.4273 63.6428 81.9655C63.5597 85.4408 63.6428 86.3429 64.2144 87.8526C64.4326 88.4603 64.682 89.2769 64.7547 89.6852C64.8275 90.084 64.9314 90.4164 64.9834 90.4164C65.1081 90.4164 65.0145 84.4818 64.8587 82.8201C64.7963 82.1174 64.7028 80.921 64.6404 80.1614C64.5781 79.4018 64.4326 78.3573 64.3183 77.835C64.2144 77.3128 64.1208 76.8665 64.1208 76.838C64.1208 76.819 64.0793 76.838 64.0273 76.8855C63.9753 76.9425 63.8818 77.4742 63.8195 78.0724Z"/>
  <path d="M59.5268 5.06264C59.506 5.12911 59.4228 5.20507 59.3501 5.22406C59.267 5.25255 59.2254 5.21457 59.2566 5.1386C59.2773 5.07214 59.3605 4.99617 59.4332 4.97718C59.5164 4.9487 59.5579 4.98668 59.5268 5.06264Z" fill="black"/>
  <path d="M100.389 24.4237C100.389 24.4711 100.337 24.5186 100.274 24.5186C100.222 24.5186 100.202 24.4711 100.233 24.4237C100.264 24.3667 100.316 24.3287 100.347 24.3287C100.368 24.3287 100.389 24.3667 100.389 24.4237Z" fill="black"/>
  <path d="M100.18 24.8985C100.18 24.9459 100.128 24.9934 100.065 24.9934C100.013 24.9934 99.9926 24.9459 100.024 24.8985C100.055 24.8415 100.107 24.8035 100.138 24.8035C100.159 24.8035 100.18 24.8415 100.18 24.8985Z" fill="black"/>
</svg>
