<svg viewBox="0 0 24 24" fill="none" xmlns="http://www.w3.org/2000/svg">
<path fill-rule="evenodd" clip-rule="evenodd" d="M21.8617 10.9326C21.7194 11.6604 21.4704 12.3591 21.1284 13.0176C21.2086 13.3387 21.2503 13.6675 21.2503 14C21.2503 14.8027 21.0173 15.5683 20.5908 16.2592C20.422 16.5327 20.3731 16.865 20.3538 17.1101C20.3322 17.383 20.3392 17.6868 20.3595 17.9854C20.3913 18.4533 20.4593 18.9564 20.5298 19.3942C20.0494 19.2473 19.4824 19.0862 18.9513 18.9664C18.6203 18.8917 18.2874 18.8294 17.99 18.7987C17.7224 18.7711 17.3754 18.7554 17.0779 18.8516C16.2858 19.1076 15.4157 19.25 14.5003 19.25C13.2023 19.25 12.0194 18.9723 11.0192 18.5C11.0129 18.5 11.0066 18.5 11.0003 18.5C9.9573 18.5 8.94824 18.3812 7.99219 18.1593C9.53013 19.7603 11.9234 20.75 14.5003 20.75C15.5708 20.75 16.5967 20.5836 17.5393 20.2788C17.5331 20.2809 17.5341 20.2808 17.5439 20.2801C17.5699 20.2784 17.6581 20.2724 17.8359 20.2908C18.0503 20.3129 18.3189 20.3614 18.6212 20.4296C19.2238 20.5656 19.8973 20.7652 20.4187 20.9307C21.3373 21.2223 22.2308 20.4191 22.0663 19.4851C21.9811 19.0013 21.8914 18.4048 21.856 17.8837C21.8383 17.6221 21.8356 17.399 21.8491 17.2282C21.8583 17.1124 21.8725 17.0545 21.8772 17.0354C21.8782 17.0314 21.8788 17.0291 21.8788 17.0283C22.4327 16.1239 22.7503 15.0947 22.7503 14C22.7503 12.8786 22.4272 11.841 21.8617 10.9326Z" fill="#007CA4"/>
<path d="M19.5 9.5C19.5 13.0899 15.6944 16 11 16C9.75228 16 8.56736 15.7944 7.49999 15.4251C6.81544 15.1883 4.46846 16.0232 3.07125 16.567C2.66312 16.7258 2.23933 16.3247 2.37633 15.9088C2.80885 14.5954 3.42593 12.5033 3.15144 12C2.73175 11.2304 2.49999 10.3859 2.49999 9.5C2.49999 5.91015 6.30557 3 11 3C15.6944 3 19.5 5.91015 19.5 9.5Z" stroke="#007CA4" stroke-width="1.5"/>
</svg>
