<svg width="768" height="125" viewBox="0 0 768 125" fill="none" xmlns="http://www.w3.org/2000/svg">
<path d="M135.35 97.0407C87.6512 113.093 20.5548 101.229 3.86985 97.8626C1.58494 97.4016 0 95.3917 0 93.0607V2.00046V1.00023V0.500113V0.250056V0.125027C0 0.0559755 0.0559639 -1.66936e-06 0.125015 -1.6699e-06L768 -7.62939e-06V119.664C768 123.188 764.454 125.664 761.113 124.542C744.866 119.087 703.491 107.232 676.5 117.5C630.894 134.85 577.213 111.069 559.452 103.2L559 103C528.5 89.4929 484.878 84.1904 463 86.5C435 89.4559 394 98 367.5 103C341 108 293 108 267.071 89.9472C241.141 71.8944 190.2 78.5813 135.35 97.0407Z" fill="#004F7C"/>
</svg>
