<svg width="366" height="128" viewBox="0 0 366 128" xmlns="http://www.w3.org/2000/svg">
  <path d="M182.58 1C148.593 1 138 35.818 138 63.494C138 91.17 148.602 125.988 182.58 125.988C216.558 125.988 227.16 91.17 227.16 63.494C227.16 35.818 216.567 1 182.58 1ZM182.58 102.898C165.417 102.898 164.237 75.553 164.237 63.503C164.237 50.604 165.417 24.108 182.58 24.108C199.743 24.108 200.923 50.604 200.923 63.503C200.923 75.553 199.743 102.898 182.58 102.898Z"/>
  <path d="M85.754 76.544H80.712V23.937C80.712 8.34701 72.318 2 61.779 2C52.33 2 47.244 5.093 43.248 11.94L2.548 81.505C1.457 83.212 0 85.277 0 89.05C0 93.502 3.817 99.16 12.72 99.16H56.513V113.722C56.513 122.813 58.363 127.086 67.633 127.086C76.903 127.086 80.711 122.804 80.711 113.722V99.16H85.753C92.842 99.16 98.473 94.708 98.473 87.843C98.474 80.995 92.843 76.544 85.754 76.544ZM57.068 76.544H32.172L56.701 28.728H57.068V76.544Z"/>
  <path d="M352.754 74.544H347.712V21.937C347.712 6.34701 339.318 0 328.779 0C319.33 0 314.244 3.093 310.248 9.94L269.548 79.505C268.457 81.212 267 83.277 267 87.05C267 91.502 270.817 97.16 279.72 97.16H323.513V111.722C323.513 120.813 325.363 125.086 334.633 125.086C343.903 125.086 347.711 120.804 347.711 111.722V97.16H352.753C359.842 97.16 365.473 92.708 365.473 85.843C365.474 78.995 359.843 74.544 352.754 74.544ZM324.068 74.544H299.172L323.701 26.728H324.068V74.544Z" />
</svg>
