<svg width="26" height="26" viewBox="0 0 26 26" fill="none" xmlns="http://www.w3.org/2000/svg">
  <path d="M19.6668 5.41667C20.7714 5.41667 21.6668 6.3121 21.6668 7.41667V22.9167C21.6668 24.0212 20.7714 24.9167 19.6668 24.9167H6.3335C5.22893 24.9167 4.3335 24.0212 4.3335 22.9167V3.625C4.3335 2.52043 5.22893 1.625 6.3335 1.625H19.5002C20.0985 1.625 20.5835 2.11002 20.5835 2.70833C20.5835 3.30664 20.0985 3.79167 19.5002 3.79167H7.85433C7.4056 3.79167 7.04183 4.15544 7.04183 4.60417C7.04183 5.0529 7.4056 5.41667 7.85433 5.41667H10.9168C11.4691 5.41667 11.9168 5.86438 11.9168 6.41667V16.1262C11.9168 16.5717 12.4554 16.7948 12.7704 16.4798L14.8133 14.4369C15.0085 14.2416 15.3251 14.2416 15.5204 14.4369L17.5633 16.4798C17.8783 16.7948 18.4168 16.5717 18.4168 16.1262V6.41667C18.4168 5.86438 18.8645 5.41667 19.4168 5.41667H19.6668Z" fill="#004F7C"/>
</svg>
