<svg viewBox="0 0 25 30" xmlns="http://www.w3.org/2000/svg">
<path d="M12.5 10.5C14.8382 21.915 9.55882 30 9.55882 30H13.9706C16.7353 21.3 15.4412 15.135 14.7059 12L12.5 10.5ZM17.8824 7.74C18.1324 8.055 18.3824 8.385 18.5735 8.73C21.0882 12.795 20.5882 17.925 17.6471 21.39C18.8824 18.315 18.7059 14.685 16.8382 11.655C16.7206 11.46 16.5882 11.295 16.4706 11.115C15.6029 9.87 14.5 8.88 13.2941 8.145C9.05882 9.525 6 13.56 6 18.33C6 19.44 6.16176 20.505 6.45588 21.495C5.22059 19.74 4.5 17.595 4.5 15.285C4.5 11.76 6.17647 8.64 8.75 6.69C6.61765 6.525 4.35294 7.005 2.38235 8.25C1.47059 8.865 0.676471 9.57 0 10.365C0.808824 8.37 2.20588 6.585 4.11765 5.355C6.32353 3.945 8.82353 3.48 11.2353 3.84C10.6324 3 9.89706 2.205 9.01471 1.5C8.16177 0.87 7.23529 0.36 6.26471 0C8.38235 0.06 10.5 0.75 12.3088 2.145C13.2353 2.85 13.9706 3.705 14.5588 4.605C14.7059 4.605 14.8382 4.59 14.9853 4.59C19.6912 4.59 23.6765 7.755 25 12.12C23.3529 9.75 20.8088 8.145 17.8824 7.74Z"/>
</svg>
