<svg width="33" height="32" viewBox="0 0 33 32" fill="none" xmlns="http://www.w3.org/2000/svg">
  <path d="M24.75 10.6667C27.0282 10.6667 28.875 8.87589 28.875 6.66675C28.875 4.45761 27.0282 2.66675 24.75 2.66675C22.4718 2.66675 20.625 4.45761 20.625 6.66675C20.625 8.87589 22.4718 10.6667 24.75 10.6667Z" stroke="#004F7C" stroke-width="2" stroke-linecap="round" stroke-linejoin="round"/>
  <path d="M8.25 20C10.5282 20 12.375 18.2091 12.375 16C12.375 13.7909 10.5282 12 8.25 12C5.97183 12 4.125 13.7909 4.125 16C4.125 18.2091 5.97183 20 8.25 20Z" stroke="#004F7C" stroke-width="2" stroke-linecap="round" stroke-linejoin="round"/>
  <path d="M24.75 29.3333C27.0282 29.3333 28.875 27.5424 28.875 25.3333C28.875 23.1241 27.0282 21.3333 24.75 21.3333C22.4718 21.3333 20.625 23.1241 20.625 25.3333C20.625 27.5424 22.4718 29.3333 24.75 29.3333Z" stroke="#004F7C" stroke-width="2" stroke-linecap="round" stroke-linejoin="round"/>
  <path d="M11.8115 18.0134L21.2028 23.3201" stroke="#004F7C" stroke-width="2" stroke-linecap="round" stroke-linejoin="round"/>
  <path d="M21.189 8.67993L11.8115 13.9866" stroke="#004F7C" stroke-width="2" stroke-linecap="round" stroke-linejoin="round"/>
</svg>
