<svg viewBox="0 0 24 24"  xmlns="http://www.w3.org/2000/svg">
  <path d="M11.0826 2.11573C11.4307 1.31285 12.5693 1.31285 12.9175 2.11573L14.9247 6.74463C15.2145 7.41294 15.8448 7.87083 16.5699 7.93993L21.5925 8.41853C22.4637 8.50155 22.8156 9.58442 22.1596 10.1636L18.3775 13.5031C17.8314 13.9852 17.5907 14.7261 17.7491 15.4371L18.846 20.3618C19.0362 21.216 18.1151 21.8852 17.3615 21.4403L13.0168 18.8753C12.3895 18.505 11.6105 18.505 10.9832 18.8753L6.63854 21.4403C5.88495 21.8852 4.96381 21.216 5.15407 20.3618L6.25097 15.4371C6.40933 14.7261 6.1686 13.9852 5.62256 13.5031L1.84049 10.1636C1.18449 9.58441 1.53634 8.50155 2.40751 8.41853L7.43013 7.93993C8.15528 7.87083 8.78552 7.41294 9.07532 6.74463L11.0826 2.11573Z" />
</svg>
