<svg width="24" height="24" viewBox="0 0 24 24" xmlns="http://www.w3.org/2000/svg">
  <path fill-rule="evenodd" clip-rule="evenodd" d="M11 2.09998C9.39835 2.09998 8.09998 3.39835 8.09998 4.99998V5.09998H4.99998H3.99998C3.50292 5.09998 3.09998 5.50292 3.09998 5.99998C3.09998 6.49703 3.50292 6.89998 3.99998 6.89998H4.99998H5.30882L6.13423 19.1715L6.13435 19.1734C6.22588 20.6219 7.42735 21.75 8.87888 21.75H15.1211C16.5726 21.75 17.774 20.6219 17.8656 19.1735L17.8657 19.1715L18.6911 6.89998H19H20C20.497 6.89998 20.9 6.49703 20.9 5.99998C20.9 5.50292 20.497 5.09998 20 5.09998H19H15.9V4.99998C15.9 3.39835 14.6016 2.09998 13 2.09998H11ZM14.1 5.09998H9.89998V4.99998C9.89998 4.39246 10.3925 3.89998 11 3.89998H13C13.6075 3.89998 14.1 4.39246 14.1 4.99998V5.09998ZM10.5991 9.96144C10.5779 9.46484 10.158 9.07952 9.66144 9.1008C9.16484 9.12208 8.77952 9.54191 8.8008 10.0385L9.1008 17.0385C9.12208 17.5351 9.54191 17.9204 10.0385 17.8991C10.5351 17.8779 10.9204 17.458 10.8991 16.9614L10.5991 9.96144ZM15.1992 10.0385C15.2204 9.54191 14.8351 9.12208 14.3385 9.1008C13.8419 9.07952 13.4221 9.46484 13.4008 9.96144L13.1008 16.9614C13.0795 17.458 13.4648 17.8779 13.9614 17.8991C14.458 17.9204 14.8779 17.5351 14.8992 17.0385L15.1992 10.0385Z"/>
</svg>
