<svg width="71" height="84" viewBox="0 0 71 84" xmlns="http://www.w3.org/2000/svg">
  <path d="M35.4167 29.1667C42.0417 60.875 27.0833 83.3333 27.0833 83.3333H39.5833C47.4167 59.1667 43.75 42.0417 41.6667 33.3333L35.4167 29.1667ZM50.6667 21.5C51.375 22.375 52.0833 23.2917 52.625 24.25C59.75 35.5417 58.3333 49.7917 50 59.4167C53.5 50.875 53 40.7917 47.7083 32.375C47.375 31.8333 47 31.375 46.6667 30.875C44.2083 27.4167 41.0833 24.6667 37.6667 22.625C25.6667 26.4583 17 37.6667 17 50.9167C17 54 17.4583 56.9583 18.2917 59.7083C14.7917 54.8333 12.75 48.875 12.75 42.4583C12.75 32.6667 17.5 24 24.7917 18.5833C18.75 18.125 12.3333 19.4583 6.75 22.9167C4.16667 24.625 1.91667 26.5833 0 28.7917C2.29167 23.25 6.25 18.2917 11.6667 14.875C17.9167 10.9583 25 9.66667 31.8333 10.6667C30.125 8.33333 28.0417 6.125 25.5417 4.16667C23.125 2.41667 20.5 1 17.75 0C23.75 0.166667 29.75 2.08333 34.875 5.95833C37.5 7.91667 39.5833 10.2917 41.25 12.7917C41.6667 12.7917 42.0417 12.75 42.4583 12.75C55.7917 12.75 67.0833 21.5417 70.8333 33.6667C66.1667 27.0833 58.9583 22.625 50.6667 21.5Z"/>
</svg>
